<?xml version="1.0" standalone="no"?>
<!DOCTYPE svg PUBLIC "-//W3C//DTD SVG 1.1//EN" "http://www.w3.org/Graphics/SVG/1.1/DTD/svg11.dtd" >
<svg xmlns="http://www.w3.org/2000/svg">
<metadata>
This is a custom SVG webfont generated by Font Squirrel.
Copyright   : RichWells
</metadata>
<defs>
<font id="ElloElloNormal" horiz-adv-x="1146" >
<font-face units-per-em="2048" ascent="1638" descent="-410" />
<missing-glyph horiz-adv-x="614" />
<glyph unicode=" "  horiz-adv-x="614" />
<glyph unicode="&#x09;" horiz-adv-x="614" />
<glyph unicode="&#xa0;" horiz-adv-x="614" />
<glyph unicode="!" horiz-adv-x="800" d="M174 319q23 78 45 209q33 184 41 224q16 80 49 219l60 258q25 117 43 221q8 39 39.5 60.5t69.5 14.5t59.5 -39t15.5 -69q-20 -104 -47 -223l-57 -260l-52 -223q-10 -47 -39 -213q-23 -139 -47 -228q-10 -37 -43 -57q-8 -2 -16 -6q23 -6 39 -23q27 -27 26.5 -65.5t-27 -65 t-65.5 -26.5t-65.5 26.5t-26.5 65.5t27 65q14 14 33 21q-33 12 -52 45q-20 32 -10 69z" />
<glyph unicode="&#x22;" horiz-adv-x="829" d="M53 944q2 84 4 250t4 250q0 39 28 65.5t67 25.5t65.5 -28.5t24.5 -66.5q-2 -84 -4 -251t-4 -249q0 -39 -28 -65.5t-67 -25.5t-65.5 28.5t-24.5 66.5zM420 999q2 305 20 435q6 39 37 62.5t69 17t61.5 -37t17.5 -67.5q-16 -119 -21 -410q0 -39 -27.5 -66.5t-65.5 -26.5 t-65.5 28.5t-25.5 64.5z" />
<glyph unicode="#" horiz-adv-x="1374" d="M-20 868q0 39 26.5 66t65.5 27q123 0 266 16q94 313 219 508q20 31 58 39t70 -12.5t40 -58.5t-12 -71q-98 -152 -172 -374q76 12 209 36l4 13q55 211 110 356q12 35 47 51.5t71 3t52.5 -48.5t1.5 -71q-43 -117 -84 -265l111 19q37 6 68.5 -16.5t38 -60.5t-16.5 -69.5 t-61 -37.5q-76 -12 -191 -33l-59 -230l-13 -43q61 6 136 15q37 4 67.5 -19.5t34.5 -61.5t-19.5 -69t-62.5 -35q-49 -6 -217 -22l-131 -365q-14 -35 -49 -51t-71 -3t-52 48t-4 72l102 276q-29 -4 -100 -16l-109 -16q-51 -170 -80 -287q-8 -37 -41.5 -57.5t-70.5 -11.5 t-57.5 43t-10.5 71q25 98 62 225q-37 -2 -74 0q-37 0 -63.5 29t-25.5 66.5t29.5 64.5t67.5 24q57 -2 121 5l31 108l41 141q-113 -10 -211 -10q-39 0 -65.5 26.5t-26.5 65.5zM412 561q102 16 145 23q33 4 72 8q18 55 33 113l36 141q-125 -23 -217 -35l-59 -219z" />
<glyph unicode="$" horiz-adv-x="1136" d="M47 221q6 47 35 105l14 28q12 25 19 39q14 37 50 51.5t71.5 0t50 -50.5t0.5 -70l-39 -80q-14 -31 -17 -47q-6 -45 37 -78q35 -27 92 -43q31 422 56 665l-27 23l-72 61q-47 43 -75 72q-20 20 -31 37q-23 31 -29 59q-20 117 44.5 199t166.5 121q49 18 103 24q8 70 10 131 q0 39 28.5 66t66.5 26t64.5 -30t24.5 -66q-2 -66 -8 -137q43 -12 76 -35q27 -16 56.5 -43.5t57 -57.5t31.5 -34q29 -27 30 -65.5t-25.5 -66.5t-65.5 -29t-66 26q-25 23 -47 48.5t-36.5 39.5t-33.5 27h-2l-4 -33l-43 -291q348 -358 254 -676q-33 -113 -123 -174 q-92 -63 -209 -80l-10 -119q-2 -39 -31.5 -64.5t-67.5 -22t-63.5 33t-21.5 66.5l8 112q-115 23 -192 84q-127 98 -107 248zM367 1036l10 -10q23 -25 63 -61l4 -2l25 167l2 13q-6 -2 -14 -4q-37 -14 -60.5 -45t-29.5 -58zM547 74q115 31 141 116q47 162 -102 367 q-19 -184 -39 -483z" />
<glyph unicode="%" horiz-adv-x="1486" d="M104 993q0 137 138 244q45 33 104 66q14 27 41 41t57 10q6 -2 13 0h20q14 2 31 2q98 2 141 -68q45 -70 17 -176q-18 -74 -68 -156q-45 -76 -102 -135q-63 -70 -123 -90q-76 -27 -140 -2q-59 23 -92 84q-39 69 -37 180zM145.5 85q-8.5 38 10.5 71q121 197 362 524 q283 385 367 508q10 14 94 154.5t141 207.5q25 29 63 32t67.5 -22.5t32.5 -63.5t-23 -69q-51 -59 -119 -175.5t-101 -166.5q-63 -96 -372 -514q-231 -313 -353 -514q-20 -33 -58 -41t-70.5 11.5t-41 57.5zM289 993q0 -59 14 -90l8 4q14 4 49 43q43 43 78 103q37 59 49 106v6 q-86 -41 -131 -75q-65 -52 -67 -97zM641 213q-20 111 64 264q53 94 108 139q27 20 63.5 40t76.5 38.5t48 22.5q33 18 70 7t55 -46q10 -18 11 -41q27 -12 45 -31q59 -55 28 -143q-6 -14 -16 -35q-6 -14 -6 -18q-59 -156 -162.5 -251.5t-212.5 -92.5q-63 2 -110.5 40.5 t-61.5 106.5zM823 256q2 2 33 19.5t51.5 35t52 61.5t52.5 103q2 2 4 6q-43 4 -60 8q-14 -8 -28 -20q-27 -20 -60 -82q-47 -84 -45 -131z" />
<glyph unicode="&#x26;" horiz-adv-x="1363" d="M158 266q-27 117 14 211q33 76 152 193l94 88q-12 63 -12 127q-2 92 11 160.5t56 142.5q23 41 77 86t109 69q88 39 158 13q92 -35 112.5 -154t-77.5 -258q-61 -90 -195 -217l-32 -29q43 -125 147 -262q129 119 209 305q16 35 52 49.5t71 -1t49 -51.5t0 -70 q-100 -227 -262 -375l76 -82q27 -29 25.5 -67t-30 -64.5t-66.5 -25.5t-65 30l-92 100q-78 -47 -170 -75q-115 -37 -213 -21q-72 12 -127 55t-71 123zM338 307q6 -29 47 -35q57 -10 127 13q57 18 109 45q-90 119 -142 231l-26 -24q-90 -90 -109 -134q-18 -39 -6 -96zM590 924 q72 72 108 125q55 78 47 120v9l-12 -4q-31 -14 -61.5 -41t-38.5 -39q-41 -70 -43 -170z" />
<glyph unicode="'" horiz-adv-x="493" d="M82 1318q-2 52 4 155q4 39 34 63.5t67.5 20t62 -34t20.5 -66.5q-4 -94 -2 -135t10.5 -133t10.5 -152q2 -39 -23.5 -67.5t-64.5 -29.5t-68 24.5t-29 64.5q-2 41 -11 139.5t-11 150.5z" />
<glyph unicode="(" horiz-adv-x="1060" d="M88 34q0 32 4 84t6 74.5t8.5 79t8.5 68.5q82 733 585 1210q27 27 66 26t65.5 -28.5t24.5 -66.5q0 -39 -29 -66q-455 -430 -528 -1096q-2 -14 -7 -63t-7 -66.5t-6.5 -59.5t-4.5 -62.5t-1 -57.5t1 -59l9 -53q4 -31 12 -58q8 -29 19.5 -57.5t28.5 -66.5t30 -68 q14 -35 -1.5 -71t-50 -50t-70.5 1t-50 50l-25 57q-20 43 -35.5 82t-25.5 74q-10 39 -16.5 79t-8.5 86t-2 78z" />
<glyph unicode=")" horiz-adv-x="800" d="M-40 -429q-7 38 13 69l70 102l76 111l61 98q39 61 66.5 112.5t52.5 104.5q47 106 80 266t33 322q0 379 -160 520q-12 12 -25.5 20.5t-36 20.5t-45.5 26q-31 20 -39 58.5t12.5 70t58.5 40t71 -12.5q4 -2 31 -18l53 -33q25 -16 43 -33q223 -201 223 -661q-2 -178 -37 -357 q-37 -178 -94 -307q-27 -57 -55 -113q-31 -57 -72 -122l-66 -105l-77 -115q-53 -76 -68 -98q-23 -33 -60.5 -40t-69.5 14.5t-39 59.5z" />
<glyph unicode="*" horiz-adv-x="1003" d="M-26.5 829.5q10.5 36.5 42.5 57.5q94 57 222 143q-98 72 -183 123q-33 20 -41 58t11.5 71t57.5 41t71 -10q68 -43 147 -101q6 127 2 232q-2 39 23.5 67.5t64.5 29.5t67.5 -24.5t28.5 -64.5q4 -109 0 -254l172 111q33 20 70 11t57.5 -43t11 -71t-43.5 -57 q-86 -51 -197 -127q102 -78 174 -127q31 -20 38 -58t-14.5 -70t-59.5 -39t-70 15l-156 113q-8 -176 -4 -303q2 -39 -23.5 -67.5t-64.5 -29.5t-67.5 24.5t-28.5 64.5q-6 121 2 291q-94 -63 -172 -109q-33 -20 -70 -10t-57.5 43t-10 69.5z" />
<glyph unicode="+" horiz-adv-x="1333" d="M62 713q-1 39 25 67.5t65 28.5q137 6 368 41q49 258 74 369q6 39 39 59t70.5 13t58 -39.5t12.5 -69.5l-53 -271q45 4 84 6.5t46 2.5t27.5 2t25.5 3t42 7l74 12q39 6 70.5 -16.5t38 -60.5t-16 -69.5t-61.5 -37.5l-64 -10q-25 -27 -61 -31q-115 -12 -248 -33 q-43 -225 -80 -379q-8 -39 -41 -58.5t-70.5 -11t-57 41t-11.5 69.5q39 180 65 309q-190 -29 -323 -32q-39 -2 -68 23.5t-30 64.5z" />
<glyph unicode="," horiz-adv-x="567" d="M14.5 -179q8.5 38 40.5 56q119 76 123 107q2 18 -12 59v2q-57 -18 -96 25q-27 29 -26 66.5t30 64.5l37 32q10 51 57 68q27 10 53 4q41 2 70 -29q37 -41 20 -92q23 -57 31 -84q27 -80 20 -137q-8 -74 -59 -127q-53 -55 -149 -115q-33 -20 -71 -12t-57.5 41t-11 71z" />
<glyph unicode="-" horiz-adv-x="772" d="M41 474q2 38 30.5 63.5t65.5 23.5q225 -12 346 -22q39 -4 63.5 -33t20.5 -68t-32.5 -63.5t-67.5 -20.5q-123 10 -338 23q-39 2 -64.5 30.5t-23.5 66.5z" />
<glyph unicode="." horiz-adv-x="503" d="M115 113q0 39 26.5 65.5t65.5 26.5t65.5 -26.5t26.5 -65.5t-26.5 -66t-65.5 -27t-65.5 27t-26.5 66z" />
<glyph unicode="/" horiz-adv-x="786" d="M-49 -55q16 74 42.5 157.5t47.5 139.5l61 151l54 137q55 150 127 398q94 336 118 411q10 37 45 54.5t72 6.5t54.5 -46t5.5 -72q-23 -72 -117 -405q-74 -252 -133 -412l-54 -141l-57 -146q-20 -53 -45 -130t-41 -144q-8 -37 -41 -57.5t-69.5 -12.5t-57 41t-12.5 70z" />
<glyph unicode="0" horiz-adv-x="1101" d="M61 289q-6 121 35 299q33 141 82 276q51 139 90 213q111 205 314 330q10 29 32 47q31 23 70 17.5t61 -33.5q10 -14 29 -33l37 -41q53 -61 74 -117q27 -76 2 -223q-20 -115 -66 -266q-92 -299 -176 -447q-74 -129 -149 -202q-27 -29 -57.5 -50.5t-73.5 -39t-91.5 -13.5 t-95.5 35q-107 72 -117 248zM248 299q4 -84 33 -102q25 -16 84 43q57 57 120 166q72 125 158 405q43 141 59 242q16 102 7 133q-6 23 -37 55l-2 2q-154 -98 -238 -256q-33 -59 -80 -188q-45 -123 -76 -254q-34 -152 -28 -246z" />
<glyph unicode="1" horiz-adv-x="962" d="M229 12q45 279 164 717q152 561 182 696q8 37 41 57.5t70 12.5t57.5 -41t12.5 -70q-25 -113 -185 -704q-115 -426 -157 -696q-6 -39 -38 -61.5t-70 -16.5t-60.5 37.5t-16.5 68.5z" />
<glyph unicode="2" horiz-adv-x="1073" d="M55 88q2 12 6 27q2 10 11 24q8 18 24 45q25 43 72 111l117 168l59 78l57 82l52 73q29 41 49 82q31 59 80 185q47 125 67 233q20 117 0 152l-2 2q-20 8 -82 -15q-27 -10 -53 -24l-61 -33l-64 -35q-35 -18 -71.5 -6t-54 46t-5.5 71t45 53l55 31q39 23 76 41t68 28 q217 82 307 -61q59 -96 24 -283q-23 -127 -75 -266q-53 -139 -90 -209l-56 -90q-33 -51 -57 -82l-61 -86q-41 -55 -56 -78l-114 -162l-21 -30q55 0 139 6q82 4 201 12t131 8q39 2 67.5 -23.5t29.5 -64.5t-24.5 -67.5t-64.5 -28.5q-14 -2 -131 -10t-198 -12q-127 -6 -203 -7 q-49 2 -80 7q-20 2 -37 8q-35 12 -55.5 38.5t-20.5 61.5z" />
<glyph unicode="3" horiz-adv-x="1013" d="M8 -5q-8 38 12.5 69.5t57.5 39.5q33 8 75 15.5t71.5 13.5t58.5 17q74 27 139 71q66 47 102 103q78 115 -2 225q-2 2 -41 18l-2 2h-6h-10q-4 0 -15.5 1t-23.5 1q-123 12 -141 109q-14 72 43 117q25 20 65 32q12 2 22.5 5.5t15.5 4.5t8 2t5 1q125 86 162 182t8 133 q-33 39 -143 39q-25 0 -48.5 -4t-58 -11t-63.5 -12q-39 -6 -69.5 17.5t-37 61.5t17 69t60.5 37q12 2 51 9t77 12t67 5q201 2 291 -106q98 -121 20 -320q-51 -131 -184 -233q53 -27 82 -66q53 -74 68.5 -153.5t-2 -148t-62.5 -132.5q-55 -84 -145.5 -148.5t-188.5 -99.5 q-33 -12 -75 -21t-89 -17.5t-61 -10.5q-39 -8 -71 12.5t-40 58.5z" />
<glyph unicode="4" horiz-adv-x="1116" d="M29 193l2 6q2 8 4 14q2 4 4 10q0 2 2 6l6 13l19 30l51 88q14 29 35 62l28 51q12 18 13 21q39 70 94 198q70 158 96 213l141 271q96 182 144 278q16 35 53 47t71.5 -4t47 -53t-3.5 -72l-2 -2q0 -6 -3 -14q-100 -451 -184 -1030q31 6 68 12t59.5 9t30.5 5q39 6 69.5 -17.5 t37 -61t-17.5 -68.5t-60 -37l-43 -8q-31 -4 -79 -11.5t-91 -15.5l-48 -362q-4 -37 -34.5 -60.5t-68.5 -19.5t-61.5 34.5t-19.5 69.5l41 309q-121 -16 -194 -20q-53 -4 -86 -2q-25 2 -41 6q-49 14 -68 53q-8 14 -10 29t-2 23zM281 274q61 6 155 19l21 4q37 262 75 489 q-12 -25 -73 -168q-59 -137 -103 -215q-2 0 -12 -18l-29 -53z" />
<glyph unicode="5" horiz-adv-x="1288" d="M82 199q-14 35 1 70.5t51 49t72 -2t48 -52.5q2 -4 31 -114q8 -33 16 -39q8 -10 51 14q66 37 152 135q76 88 140.5 188.5t78.5 143.5q37 106 -2 231q-8 27 -17.5 43.5t-13.5 18.5l-4 4q-4 4 -29 -4q-14 -4 -39 -15l-51 -20q-94 -35 -157 2q-47 29 -56 94q-4 29 0 70 q4 66 23 158q18 86 41 155q10 37 22 62q18 43 43 63q53 41 138 29q14 -2 24 -4l14 -4q6 0 10.5 -1t8.5 -1q49 2 75.5 3t55.5 3t41 3t55 5t76 8q39 4 68.5 -20.5t33.5 -62.5t-20.5 -67.5t-61.5 -33.5q-197 -20 -319 -23q-27 -2 -80 8q-4 -10 -8 -22q-18 -59 -35 -137 q-10 -53 -16 -97l2 2q37 14 59 21q96 29 168 -10q84 -43 125 -172q59 -184 2 -351q-23 -63 -96 -178q-74 -117 -158 -213q-109 -125 -203 -178q-150 -84 -260 6q-55 45 -78 137q-6 20 -10 40t-6 31.5t-6 23.5z" />
<glyph unicode="6" horiz-adv-x="1159" d="M71.5 323.5q-20.5 108.5 0.5 196.5q18 84 53 168t92 172l98 154q45 66 125 157l119 136l127 135l109 114q27 29 64.5 30t66 -25.5t29.5 -64.5t-25 -66l-107 -113l-116 -125l-105 -119q-70 -82 -109.5 -135t-88 -125t-80.5 -137q154 53 264 8q127 -51 157 -197 q25 -117 -28 -245q-55 -129 -168 -197q-121 -74 -238 -41q-98 29 -166 131q-53 80 -73.5 188.5zM252 479q-12 -53 1 -122.5t48 -118.5q29 -45 64 -54q37 -12 90 21q59 37 89.5 110.5t18.5 135.5q-10 47 -43 61q-57 23 -170 -27q-51 -20 -94 13q-2 -11 -4 -19z" />
<glyph unicode="7" horiz-adv-x="1265" d="M39 1313q0 39 26.5 65.5t65.5 26.5h682q6 0 11 2t20.5 6t36.5 8q117 27 168 -55q16 -31 12 -66q0 -14 -6 -30q-6 -18 -19 -45q-18 -39 -53 -99l-84 -135q-55 -92 -143 -266l-121 -238l-92 -163l-113 -203q-43 -84 -80 -170q-16 -35 -52 -49.5t-70.5 1t-49 51.5t-0.5 71 q39 86 83 172t117 213t93 168q35 61 124 238t144 269l82 136h-4h-686q-39 0 -65.5 26.5t-26.5 65.5z" />
<glyph unicode="8" horiz-adv-x="1214" d="M129 113q-20 61 8 149q18 57 60 131q31 55 127 195q33 49 116 157l52 66q-57 102 -76 186q-49 209 110 379q0 2 10.5 11.5t13.5 13.5t13 14t17 15l18 16q10 8 20 12l21 12q12 8 24.5 13.5t24.5 9.5q55 14 133 10q2 -2 39 -5t58 -3q39 0 65.5 -26.5t26.5 -65.5t-27 -65.5 t-65 -26.5h-5q10 -49 7 -90q-12 -154 -193 -406l-10 -14l10 -19l66 -100q20 -33 49.5 -95.5t44.5 -113.5q49 -207 -113 -364q-51 -51 -134 -97.5t-165 -66.5q-111 -27 -196 4q-109 41 -150 164zM305 168q12 -35 39 -45q31 -10 88 2q57 14 117.5 48t93.5 67q88 86 62 188 q-16 74 -109 215l-8 -12q-84 -106 -113 -150q-86 -125 -117 -180q-31 -57 -45 -98l-4 -13q-2 -6 -2 -10t-1 -6t-1 -4v-2zM596 1038q6 -27 18 -59q113 168 121 258q2 16 -6 47l-6 23q-16 -10 -61 -58q-93 -98 -66 -211z" />
<glyph unicode="9" horiz-adv-x="1179" d="M248 1114q-20 82 41 178q41 66 117 133q68 59 139 105q82 49 139 55q51 6 121 -6q4 0 36.5 -7t51.5 -9q39 -4 62.5 -35t19.5 -68q0 -8 -2 -14q2 -8 2 -14q2 -23 0 -50q-4 -33 -21 -82l-30 -88q-20 -57 -25 -71l-82 -244l-88 -266q-31 -90 -74 -232.5t-73 -263.5 q-10 -37 -43 -57.5t-70 -10t-57.5 43t-10.5 69.5q18 76 43 160l43 143q16 59 52 166l47 142l53 163q45 131 51 148q-57 -43 -108 -70q-96 -55 -170 -53q-59 0 -103.5 36t-60.5 99zM432 1167q25 8 60 27q94 51 180 133q51 49 69 70v4q-20 2 -36.5 0t-63.5 -31 q-57 -35 -111 -82q-57 -51 -86 -96q-8 -13 -12 -25z" />
<glyph unicode=":" horiz-adv-x="542" d="M109 90q0 39 26.5 65.5t65.5 26.5t65.5 -26.5t26.5 -65.5t-26.5 -65.5t-65.5 -26.5t-65.5 26.5t-26.5 65.5zM154 858q0 39 26.5 65.5t65.5 26.5t65.5 -26.5t26.5 -65.5t-26.5 -65.5t-65.5 -26.5t-65.5 26.5t-26.5 65.5z" />
<glyph unicode=";" horiz-adv-x="589" d="M24.5 -200q-6.5 38 16.5 69l51 72q23 31 33 43t16 20t10.5 16.5t8.5 18.5l14 51q12 41 31 96q12 37 46 54.5t70.5 5t54 -46t5.5 -70.5l-21 -70l-18 -55l-12 -37q-6 -20 -15 -33q-8 -16 -22 -36.5t-45 -61.5l-55 -74q-23 -33 -61 -39t-69.5 16.5t-38 60.5zM156 842 q0 39 26.5 65.5t65.5 26.5t65.5 -26.5t26.5 -65.5t-26.5 -65.5t-65.5 -26.5t-65.5 26.5t-26.5 65.5z" />
<glyph unicode="&#x3c;" horiz-adv-x="1288" d="M92 717q-4 33 14 61q6 10 15 19l18 14q8 6 25 14q20 12 63 33l146 74q305 164 530 360q29 27 68 24t64.5 -32t22.5 -67.5t-32 -63.5q-246 -213 -567 -385l-123 -61l6 -5q35 -23 104 -47q106 -37 140 -51q53 -25 223 -108q123 -59 217 -99q35 -14 50.5 -49t1 -70.5 t-49.5 -51t-72 -1.5q-86 35 -229 105l-219 106q-20 10 -121 43q-92 33 -147 68q-2 2 -31 18q-25 16 -41 29q-68 53 -76 123z" />
<glyph unicode="=" horiz-adv-x="1259" d="M63 891q0 39 27 65.5t66 26.5q156 0 444.5 50t349.5 59q39 4 70 -19.5t35 -61.5t-19.5 -69t-60.5 -35q-23 -2 -338 -55t-481 -53q-39 0 -66 26.5t-27 65.5zM207 441q-4 38 19.5 69t60.5 35q512 66 653 92q37 6 68.5 -15.5t39 -59.5t-14 -69.5t-60.5 -39.5 q-145 -27 -662 -93q-39 -4 -69.5 19.5t-34.5 61.5z" />
<glyph unicode="&#x3e;" horiz-adv-x="1224" d="M15.5 1117q-11.5 38 7 71t56.5 44t71 -7q20 -12 88 -45l168 -86l182 -93l262 -139q57 -33 92 -55q20 -14 33 -25q27 -23 39 -47q18 -45 -6 -92q-10 -20 -29 -41q-23 -25 -70 -61q-68 -53 -207 -144l-227 -149q-121 -76 -153 -103q-31 -23 -70 -17.5t-61.5 35.5 t-17.5 68.5t34 61.5q41 31 168 113l225 145q127 84 188 131l-30 18q-90 51 -254 136l-185 94l-172 86l-88 45q-32 18 -43.5 56z" />
<glyph unicode="?" horiz-adv-x="1048" d="M42 1283q7 38 38 58l43 31q39 27 51 33l43 27q31 18 58.5 30.5t60.5 24.5q117 43 230.5 30.5t188 -86t87 -186t-30.5 -231.5q-33 -94 -149 -193l-27 -22q-18 -14 -26.5 -20.5t-20.5 -18.5l-19 -19q-8 -8 -16 -17t-14 -19q-31 -45 -56 -160l-20 -99q-14 -72 -23 -102 q-10 -39 -42.5 -58.5t-70.5 -9t-57.5 43t-9.5 69.5q8 31 21.5 99.5t19.5 97.5q33 145 82 221q12 18 27.5 36.5t35.5 37.5l31 28q10 10 36 31t28 25q78 63 94 110q55 158 -12.5 224.5t-225.5 11.5q-25 -8 -44 -16.5t-43.5 -24t-34 -20.5t-45 -29.5t-44.5 -30.5 q-33 -23 -70.5 -15.5t-59 39t-14.5 69.5zM229 125q0 39 27 65.5t65.5 26.5t65.5 -26.5t27 -65.5t-27 -65.5t-65.5 -26.5t-65.5 26.5t-27 65.5z" />
<glyph unicode="@" horiz-adv-x="1966" d="M291 698.5q45 229.5 186 427.5q59 86 118.5 131.5t162.5 102.5q129 70 272.5 89t276.5 -12.5t246.5 -127t177.5 -246.5q76 -180 -23 -467q-41 -117 -103.5 -222.5t-129.5 -168.5q-82 -76 -162 -113t-158 -31.5t-141 62.5q-106 92 -123 285q-25 -37 -49 -66 q-109 -125 -217 -82q-119 45 -105 209q8 84 41 154q47 109 125 204q102 127 209 162q33 10 76 15.5t87 6.5t50 1q37 4 66.5 -20.5t33.5 -63.5q4 -33 -14 -59.5t-49 -37.5q2 -35 -17 -81q-4 -8 -13 -30t-11 -24q-8 -20 -8 -24q-12 -78 -19 -133q-10 -100 8.5 -174t51.5 -103 q66 -57 211 78q49 45 98 131q51 86 86 184q76 221 27 338q-57 137 -175 210t-259.5 70t-276.5 -77q-90 -49 -132 -82t-87 -94q-119 -168 -156 -358.5t1 -354.5t132 -284q70 -86 161 -136.5t207 -59.5t257 48t289 182q29 25 66.5 22t63 -33t22.5 -67.5t-34 -64.5 q-172 -145 -346 -214t-325.5 -59.5t-280.5 78t-225 189.5q-121 154 -168 357.5t-2 433zM709 473q41 51 94 152q25 45 65 129l-39 -43q-61 -78 -100 -162q-12 -31 -20 -76z" />
<glyph unicode="A" horiz-adv-x="1173" d="M29 39q197 616 495 1204l72 141l57 103l27 43q10 10 16 18q20 20 43 29q27 10 52 10q46 0 79 -37q33 -33 39 -98q2 -23 4 -96q2 -78 7 -133q49 -688 49 -1098q0 -39 -27 -65.5t-65.5 -26.5t-65.5 26.5t-27 65.5q0 285 -18 627l-264 10q-168 -377 -297 -780 q-12 -37 -46 -55q-20 -10 -41 -10q-15 0 -30 5q-37 12 -54 46q-10 20 -10 41q0 15 5 30zM584 944q33 -2 170 -6l-19 272q-2 16 -2 33l-45 -86z" />
<glyph unicode="B" horiz-adv-x="1075" d="M82 29l14 53q-1 8 -1 16q0 29 18 54q23 94 102 538q57 317 64 344q25 121 45 199q31 106 61 151q45 68 118 103q59 28 120 28q14 0 28 -2q84 -6 143.5 -65t73.5 -158q4 -27 4 -53q0 -202 -221 -375l-55 -39q102 -61 141 -151q29 -72 32 -141v-16q0 -59 -19 -111 q-23 -58 -58 -106t-84 -91q-131 -115 -334 -182l-12 -45q-10 -37 -44 -57q-22 -13 -45 -13q-12 0 -26 4q-37 10 -56 44q-13 22 -13 46q0 12 4 25zM324 244q98 47 163 102q95 83 95 174q0 38 -17 78q-14 35 -65 66h-49q-29 0 -50 4l-2 -11zM451 948q51 33 86 62 q149 114 149 230q0 13 -2 26q-8 59 -51 63q-6 1 -11 1q-50 0 -85 -52q-12 -18 -33 -94q-18 -63 -43 -187z" />
<glyph unicode="C" horiz-adv-x="1316" d="M213 203q-18 64 -18 152q0 94 20 216q37 225 125 447q100 250 229 385q139 146 291 145q36 0 74 -8q47 -10 96 -51l27 -25q10 -10 16 -14q33 -23 39 -60q1 -8 1 -16q0 -29 -17 -54q-23 -32 -61 -38q-8 -1 -16 -1q-29 0 -52 17q-16 10 -35 29l-23 21l-16 12q-14 3 -27 3 q-78 0 -164 -89q-104 -111 -190 -326q-82 -199 -115 -407q-16 -105 -16 -181q0 -65 12 -108q10 -37 25.5 -57.5t23 -23.5t17.5 -3q57 2 123 86q10 12 16 25.5t15.5 38t21.5 53.5q16 33 53 46q17 6 33 6q20 0 38 -9q34 -16 47 -54q6 -17 6 -32q0 -20 -9 -39l-12 -31 q-14 -33 -30 -64.5t-32 -54.5q-121 -154 -268 -155h-6q-86 0 -148 57q-63 58 -94 162z" />
<glyph unicode="D" horiz-adv-x="1130" d="M102 41q51 541 203 1169q2 6 2 14.5t1 23t3 30.5q8 82 51 127q58 62 187 62q12 0 24 -1q203 -6 293 -194q55 -115 60 -303v-22q0 -141 -49 -279q-53 -150 -146.5 -269.5t-206 -217t-237.5 -167.5h-2q-6 -35 -35 -56q-24 -18 -53 -18q-5 0 -11 1q-39 4 -63 33 q-21 25 -21 57q-1 5 0 10zM313 250q193 137 313 325q116 182 116 376q0 7 -1 14q-4 147 -43 227q-41 86 -133 90q-13 1 -23 1q-31 0 -42 -5l-4 -18q-8 -84 -11 -95q-119 -489 -172 -915z" />
<glyph unicode="E" horiz-adv-x="1271" d="M115 49q-1 5 -1 9.5t1 9.5q0 6 2 12q0 4 2 6v4l2 2v4l4 8l12 33l39 99q59 152 78 206q14 43 149 519q92 326 177 526q6 12 14 22q8 31 34 51q23 18 52 17h6q135 -2 289 -2q39 0 65.5 -26.5t26.5 -65.5t-26.5 -65.5t-65.5 -26.5h-234q-76 -184 -159 -482l-25 -86l131 19 q6 1 11 0q30 0 57 -19q31 -23 36 -60v-14q0 -30 -18 -55q-23 -31 -61 -37l-211 -28q-35 -129 -72 -244q-20 -63 -80 -217l-16 -41q15 -1 33 -1t39 1q41 0 88 2t90 5t55 3h6q35 0 61 -23q30 -28 29 -71q0 -35 -23 -60q-26 -28 -65 -30q-12 -2 -56 -4t-92 -5t-89 -3 q-22 -1 -41 -1q-59 0 -101 5q-35 4 -61 12q-47 12 -72 43q-18 22 -20 49z" />
<glyph unicode="F" horiz-adv-x="1196" d="M166 55q14 137 51 310q39 172 62 256l83 297q-8 20 -8 40q0 49 41 78l27 99q6 25 12 63q2 4 6 33t6 41q20 104 58 168q63 111 223 121q19 2 44.5 2t55.5 -2q61 -4 70 -5q3 0 6 1q35 0 61 -25q29 -28 28 -68q0 -37 -25 -64q-27 -28 -66 -28q-6 -1 -17 -1q-23 0 -67 3 q-33 3 -56 3q-12 0 -22 -1q-61 -4 -75 -30q-20 -35 -33 -107q-4 -14 -8.5 -39.5t-4.5 -32.5q-8 -47 -16 -77l-10 -37q4 0 29 4l102 18l16 2q28 0 53 -18q32 -23 37 -61l2 -16q0 -29 -18 -53q-23 -32 -61 -38l-99 -17q-37 -6 -55 -8t-53 -2h-4q-2 -8 -23 -82l-24 -86l-23 -80 q-18 -66 -25 -86l-18 -79q-14 -57 -20.5 -85t-16.5 -79t-16 -86t-15 -80q-6 -41 -10 -86q-4 -39 -34 -63q-25 -20 -57 -20q-6 0 -11 1q-39 4 -63 34q-20 25 -20 57q0 5 1 11z" />
<glyph unicode="G" horiz-adv-x="1368" d="M293 207q-5 34 -5 81q0 62 9 146q33 295 90 522q92 360 240 498q98 92 243 109q18 2 36 1q61 0 119 -22q75 -29 118 -108q22 -41 22 -98q0 -16 -2 -33q-2 -16 -5 -31t-4 -23t-1 -16q0 -39 -26.5 -65.5t-65.5 -26.5t-65.5 26.5t-26.5 65.5q0 2 8 92l2 23q-17 30 -65 30 q-11 0 -23 -2q-84 -8 -137 -57q-109 -100 -187 -408q-55 -219 -86 -497q-7 -74 -7 -124q0 -33 3 -57q10 -72 47 -83q10 -3 21 -4q65 0 147 133q84 133 135 311q6 18 17 45q12 29 14 33q8 20 6 28q-2 12 -12 21q-6 0 -16 -2q-78 -18 -84 -19t-12 0q-32 0 -57 20 q-30 24 -34 62q-1 6 0 12q0 32 20 57q24 30 62 34q8 0 14.5 2l19.5 6t28 6q34 8 63 8q33 0 62 -10q53 -20 87.5 -69.5t43.5 -102.5q1 -11 1 -23q0 -44 -18 -94q-2 -8 -16 -39q-6 -18 -8 -28q-59 -201 -158 -357q-139 -221 -300 -221q-41 0 -83 14q-147 50 -174 234z" />
<glyph unicode="H" horiz-adv-x="1470" d="M184 23q39 233 142 733q-4 10 -7 20q-3 12 -2 24q0 36 29 62q68 336 103 555q6 39 36 62q24 18 54 17q8 0 16 -1q39 -6 61 -37q18 -24 18 -53q0 -8 -1 -16q-33 -205 -86 -474q145 25 477 70q41 289 57 537q2 37 31 62q27 24 61 24h6q38 -2 63 -31q24 -27 24 -62 q0 -71 -21 -266q-16 -137 -29.5 -237.5t-40 -262t-40.5 -233.5l-48 -262q-35 -186 -43 -238q-8 -39 -39 -60q-24 -16 -52 -16q-9 0 -18 2q-38 7 -59 39q-17 25 -17 52q0 8 1 16q117 631 135 744q-324 -41 -487 -74q-100 -485 -139 -725q-6 -39 -38 -62q-25 -18 -54 -17 q-8 0 -16 1q-38 6 -60 38q-18 25 -18 53q0 8 1 16z" />
<glyph unicode="I" horiz-adv-x="718" d="M86 31q10 90 26.5 189t41 222t34.5 189q25 141 70 430l72 438q8 37 39 60q23 17 50 17q9 0 18 -2q38 -7 61 -38q18 -24 17 -53q0 -8 -1 -17q-27 -145 -72 -435t-69 -433l-37 -184q-23 -119 -39 -216.5t-27 -187.5q-4 -37 -33 -61q-25 -21 -57 -21h-11q-38 4 -63 34 q-21 25 -21 58q0 5 1 11z" />
<glyph unicode="J" horiz-adv-x="772" d="M-111 -162q-1 8 -1 15q0 28 19 53q24 31 61 37q8 1 16 1q29 0 53 -19q31 -24 37 -62q8 -57 18 -99q39 70 78 175.5t53 166.5q39 156 66.5 346.5t39 315.5t29 367.5t25.5 339.5q2 37 32 62q27 23 59 23h8q38 -3 64 -33q22 -26 22 -58q0 -5 -1 -11l-22 -332 q-18 -246 -30.5 -374.5t-41.5 -329.5q-29 -197 -70 -361q-18 -74 -63 -196.5t-94 -204.5q-37 -59 -74 -90q-46 -38 -94 -38q-26 0 -53 11q-59 27 -95 115q-25 65 -41 180z" />
<glyph unicode="K" horiz-adv-x="1275" d="M150 43q25 207 81 585t70 480q45 322 70 430q8 37 41 57q23 15 49 15q10 0 20 -2q37 -8 58 -41q15 -23 14 -49q0 -10 -2 -21q-25 -106 -66 -414l-16 -110h2l438 497q27 29 65 31h5q34 0 61 -23q31 -28 31 -70q0 -34 -22 -60l-467 -529q53 -141 159 -401l133 -322 q7 -18 7 -35q0 -19 -8 -36q-15 -35 -51 -50q-17 -7 -34 -6q-18 0 -36 7q-35 15 -50 51l-260 641l-20 -23q-61 -406 -88 -622q-4 -39 -35 -63q-26 -20 -58 -20q-5 0 -11 1q-38 4 -61 34q-20 26 -20 57q0 6 1 11z" />
<glyph unicode="L" horiz-adv-x="935" d="M137 219q0 45 13 143q10 80 18 142q12 74 22.5 133t26.5 143l29 133l30 144q20 92 31 131l33 139q25 102 31 131q8 39 41 59q23 14 48 13q11 0 22 -2q38 -8 58 -41q14 -23 13 -48q0 -11 -2 -22q-8 -35 -31 -133l-33 -141l-28 -127q-23 -94 -32 -141.5t-26.5 -129 t-27.5 -139.5l-21 -131q-10 -72 -18 -137q-10 -84 -12 -123q0 -29 2 -49q4 0 10 2q41 0 108 6q39 4 79 9t72 10.5t34 5.5q6 1 11 0q32 0 58 -20q31 -24 35 -61q1 -6 1 -11q0 -31 -20 -58q-24 -31 -61 -35q-2 0 -35.5 -5t-74.5 -10t-78 -9q-76 -8 -127 -8q-33 0 -55 2 q-39 4 -64 18q-57 31 -74 113q-7 34 -6 80v24z" />
<glyph unicode="M" horiz-adv-x="1509" d="M305 920l53 163q2 6 2 11.5t1 19.5t6 33q12 102 90 133q28 11 53 11q45 0 82 -36q33 -33 47 -90q11 -53 11 -149q0 -16 -1 -33q-2 -16 -2 -35.5t-1 -42t-1 -35.5l49 72l131 205q86 129 142 196q39 45 69 72q50 40 100 40q7 0 13 -1q100 -12 137 -106q19 -45 19 -111v-25 q-2 -51 -15 -112q-4 -16 -8 -41q-4 -14 -4 -17q-27 -178 -55.5 -507.5t-36.5 -409.5q-4 -37 -34 -62q-25 -21 -57 -21q-5 0 -11 1q-38 4 -62 34q-21 25 -21 57v11q8 78 37 412t56 514q2 6 6 29q6 23 8 37q10 49 12 86v12l-10 -10q-47 -57 -129 -183l-131 -200 q-74 -111 -105 -140q-39 -35 -77 -53q-41 -19 -80 -19q-29 0 -58 11q-39 14 -57 57q-8 18 -12 43q-2 16 -4 41q-117 -399 -131 -749q0 -39 -29 -65q-28 -25 -65 -24h-3q-39 1 -64 29q-24 27 -24 62q0 366 164 885z" />
<glyph unicode="N" horiz-adv-x="1708" d="M172 68q-4 46 -3 93q0 90 12 183q19 143 69.5 303t86.5 257t101 261l41 99q4 10 6 18t5.5 24.5t9.5 34.5q23 90 84 129q32 18 63 19l55 -14q35 -18 58 -62q25 -43 41 -119q10 -57 22 -170q59 -553 78 -723q4 -39 14 -100q10 25 19.5 53.5t18 59t12.5 43.5q14 51 65 215 l76 237l63 205q41 129 80 236l74 211q14 35 49 51q19 9 39 9q16 0 32 -6q36 -13 52 -48q9 -20 9 -41q0 -15 -5 -31l-76 -209l-77 -233l-66 -203l-72 -236q-49 -158 -67 -211q0 -2 -11.5 -43t-24.5 -81.5t-30 -75.5q-79 -178 -210 -178q-12 0 -25 2q-55 4 -78 63v4l-2 2v2v2 q-2 0 -2 2v2v2v7l-4 22l-13 72q-18 115 -24 170q-16 123 -78 727q0 2 -1 9t-2 17.5t-1 22.5l-25 -57q-63 -158 -100 -257.5t-82 -243.5t-61 -271q-12 -92 -12 -180q0 -12 1 -35t1 -35q0 -35 -23 -62q-25 -29 -64 -30q-3 0 -6 -1q-35 0 -61 23q-29 25 -31 64zM940 141 q2 -6 4 -6l-4 12v-6z" />
<glyph unicode="O" horiz-adv-x="1525" d="M276 390q-5 43 -4 86q0 46 6 91q11 86 44 178q55 164 158.5 322t203.5 248l29 28l41 41q20 18 52 40t60 34q29 10 60 12q6 8 12 15q27 27 65.5 26.5t65.5 -26.5q6 -6 21 -19h8q3 0 5 1q35 0 61 -25q28 -27 28 -66v-2v-2q35 -35 55 -65q75 -112 75 -284q0 -100 -26 -220 q-57 -262 -182 -451q-119 -176 -244 -256q-103 -63 -204 -62q-94 0 -187 54q-90 53 -141.5 132t-61.5 170zM498 684q-42 -122 -42 -214q0 -153 117 -222q45 -26 91 -26q53 0 108 34q92 57 186 199q109 162 158 387q22 101 22 179q0 115 -46 183q-23 33 -80 82q-10 0 -19 2 q-9 0 -16 1q-30 0 -45 -7q-18 -6 -31.5 -17.5t-40 -39t-53.5 -49.5q-80 -74 -170 -211.5t-139 -280.5z" />
<glyph unicode="P" horiz-adv-x="1368" d="M259 379q32 158 59.5 253t91.5 286l77 239l58 193q2 8 3 14t2 19.5t5 29.5q12 72 51 113q18 16 40 29.5t46.5 21.5t42 13t39.5 7l21 5q44 10 83 9q61 0 114 -23q87 -38 134 -122q39 -74 39 -160v-9q-2 -91 -47 -175q-47 -88 -110.5 -160.5t-142.5 -128t-152.5 -94.5 t-165.5 -75q-12 -4 -27 -7q-102 -340 -112 -571q0 -39 -29 -64q-28 -25 -65 -25h-3q-39 1 -64 30q-24 27 -24 61q0 112 36 291zM596 889q256 125 358 319q27 51 27 98q0 38 -18 72q-27 47 -88 48q-18 0 -39 -5q-88 -20 -95 -24q-2 -6 -4 -17q-14 -80 -16 -84l-57 -192z" />
<glyph unicode="Q" horiz-adv-x="1568" d="M133 381q0 176 53.5 365.5t169.5 367.5q115 174 271 266q72 41 168 68q100 27 194 27q74 0 138.5 -17.5t125 -69t88.5 -131.5q10 -29 15.5 -68.5t6.5 -78.5t1 -43q1 -6 1 -11q0 -32 -20 -58q-24 -30 -63 -33h-6q-25 -139 -172 -416q-133 -250 -232 -375 q100 -147 232 -190q18 -6 35.5 -8.5t46 -4.5t57.5 -6q39 -6 63 -37q19 -24 18 -53q0 -8 -1 -15q-6 -38 -37 -62q-24 -19 -52 -18q-7 0 -15 1q-6 0 -42 3t-71 9t-59 14q-180 59 -312 238q-126 -87 -251 -87l-81 9q-127 29 -198.5 139.5t-71.5 274.5zM317 381q0 -111 37 -165 t90 -66q19 -4 39 -5q74 0 158 62q-51 106 -76 219q-2 11 -2 22q0 26 15 49q20 32 58 40q11 2 21 2q26 0 49 -15q32 -20 39 -57q12 -53 31 -107q80 119 164 275q141 266 154 371q4 53 4 77.5t-2 82t-2 94.5v12q-41 16 -105 16h-13q-64 0 -131 -18q-75 -20 -124 -49 q-119 -70 -213 -213.5t-142.5 -308t-48.5 -318.5z" />
<glyph unicode="R" horiz-adv-x="1323" d="M195 33q20 164 64 340t112.5 400t93.5 319l61 221q25 86 39 131l17 47q4 12 8 20q10 20 22 35q67 63 163 63q41 0 87 -12q104 -27 182 -92q55 -47 72 -149q4 -25 4 -50q0 -196 -231 -356q-66 -47 -160 -92l-4 -2l18 -49q23 -57 103 -248q174 -412 184 -440q5 -16 5 -31 q0 -21 -9 -41q-16 -35 -53 -47q-16 -5 -31 -5q-21 0 -41 9q-35 16 -47 53q-8 23 -180 430q-74 174 -103 252l-8 21q-57 -186 -78.5 -263t-56.5 -223.5t-49 -265.5q-4 -37 -35 -60q-26 -20 -57 -20h-12q-38 4 -61 35q-20 26 -20 58q0 6 1 12zM639 1020l6 4q82 41 139 80 q149 102 149 203q0 10 -1 20q-2 12 -4 21.5t-2 11.5l-2 4q-47 37 -107 53q-24 6 -41 6q-14 0 -24 -4q-2 -12 -11 -33q-14 -45 -36 -124l-60 -220z" />
<glyph unicode="S" horiz-adv-x="1130" d="M-25 269q0 46 25 98q2 2 16 30q6 12 11 19q12 37 48 52q19 8 38 8l33 -6q36 -13 52 -49q8 -19 8 -37q0 -17 -7 -34q-6 -18 -19 -39q0 -2 -5 -12t-9 -14l-6 -15q2 -51 41 -102q48 -68 108 -68q19 0 39 6q43 14 84 55.5t68 96.5q27 60 26.5 120.5t-26.5 121.5 q-23 49 -117 157q-106 123 -135 215q-17 59 -17 123q0 51 11 105q25 121 90 219q33 53 77 93t99 68q51 26 114 25h9q68 -2 135 -37q39 -18 80 -57l18 -18q18 -18 29 -27q31 -27 34 -64v-9q0 -33 -23 -59q-26 -30 -63 -33h-9q-33 0 -58 22q-2 2 -57 53q-20 20 -33 29 q-29 15 -58 14q-74 0 -139 -100q-45 -70 -62 -156q-9 -44 -9 -78q0 -32 8 -55q18 -57 100 -152q2 -2 17.5 -19.5t19.5 -21.5l19 -24q14 -16 20 -25l18 -24q12 -16 21 -29l14 -29q8 -14 15 -28q45 -99 45 -198.5t-45 -199.5q-39 -86 -106.5 -153.5t-151.5 -96.5 q-48 -18 -98 -18q-45 0 -93 15q-98 32 -170 130q-74 104 -74 212z" />
<glyph unicode="T" horiz-adv-x="1470" d="M146 1407q0 36 26 63q27 29 66 29q35 1 88 1q134 0 385 -7q116 -3 212 -3q145 0 244 7q5 1 10 1q31 0 57 -22q30 -26 33 -64v-8q0 -33 -23 -59q-26 -30 -64 -32q-114 -9 -262 -9q-49 0 -103 1q-20 -129 -65 -330q-68 -299 -82 -379q-18 -90 -48 -286.5t-53 -301.5 q-6 -37 -39 -58q-25 -16 -51 -16q-9 0 -18 1q-37 7 -59 40q-16 24 -15 50q0 10 2 20q20 104 50 300t46 284q6 29 86 387q41 182 60 295q-168 5 -284 5q-58 0 -103 -1h-6q-34 0 -60 24q-30 28 -30 68z" />
<glyph unicode="U" horiz-adv-x="1474" d="M186 223q-1 11 0 23q0 30 3 67q5 51 12.5 101.5t9.5 62.5q12 160 50 352.5t66.5 306t90.5 339.5q10 37 44 56q22 13 45 13q12 0 25 -4q37 -10 57 -44q13 -22 13 -46q0 -12 -4 -25q-61 -221 -90 -333.5t-64.5 -295t-48.5 -335.5q-2 -29 -14 -107q-10 -80 -10 -125 q2 -49 15 -71.5t42 -32.5q17 -5 33 -5q60 0 125 68q20 25 42.5 58t35.5 51l36 63q27 47 31 54q127 217 206 473t150 598q6 39 39 59q24 15 52 15q9 0 19 -1q38 -7 58 -40q15 -23 15 -49q0 -10 -2 -21q-72 -352 -156 -622.5t-221 -506.5q-4 -8 -23 -40l-30 -52l-31 -51 q-20 -31 -42 -59.5t-42 -50.5q-121 -133 -256 -134q-47 0 -96 17q-179 59 -185 274z" />
<glyph unicode="V" horiz-adv-x="1708" d="M348 1466q0 35 23 62q25 29 63 31h6q35 0 62 -23q29 -25 30 -63q4 -74 7 -220q0 -133 6 -204q8 -80 28.5 -252t26.5 -262q0 -8 2 -48l8 -88q2 -27 8 -96q4 -47 7 -82q14 18 26 39q33 51 72 125l18 37q8 18 14.5 29.5t8.5 13.5l567 989q18 35 55 45q13 4 26 4q23 0 45 -13 q34 -19 44 -56q3 -12 4 -25q0 -24 -14 -45l-567 -989q0 -4 -5.5 -13.5t-13.5 -27t-18 -33.5q-41 -82 -78 -141q-57 -90 -109 -133q-23 -18 -50 -33q-26 -13 -65 -14q-3 0 -5 1q-43 1 -80 33q-20 16 -31 43q-6 12 -10 27l-10 57q-8 55 -17 146q-4 45 -7 97t-6 90t-3 44 q-8 92 -28.5 263t-27.5 251q-8 80 -8 221q0 58 -2 127.5t-2 85.5z" />
<glyph unicode="W" horiz-adv-x="1812" d="M57 451q-4 68 -4 141q0 82 5 170q9 166 30 365.5t27 297.5q2 39 30 64q26 23 62 23q3 0 6 -1q39 -2 63 -30q23 -26 23 -62q0 -55 -26 -314q-19 -196 -28 -350q-6 -93 -6 -181q0 -59 3 -115q8 -164 16 -193q20 12 47 35q23 20 68 119q27 61 94 233q68 174 98 238 q63 135 125 172q23 14 55.5 13t57.5 -25q20 -18 28 -47q6 -16 7 -43q1 -10 0 -24q0 -26 -2 -63q-6 -80 -19 -192q-2 -16 -10 -77.5t-11 -95.5t-9 -103q-3 -39 -2 -66q0 -22 1 -37q6 -94 33 -127q10 -14 45 -6q8 8 17 18q25 27 55 72l78 123q195 317 413 1010q10 37 46 54 q21 11 43 10q14 0 28 -4q37 -11 54 -46q10 -20 11 -42q0 -15 -5 -30q-225 -711 -430 -1050l-84 -129q-39 -55 -68 -90q-51 -57 -94 -70q-49 -15 -91 -15q-100 0 -165 82q-61 78 -70 228q-2 30 -2 64q0 68 8 151q-41 -104 -67 -162q-59 -135 -113 -182q-100 -90 -183 -90h-7 q-102 4 -146 110q-10 25 -16 54.5t-10.5 62.5t-5.5 56.5t-2 55.5t-1 40z" />
<glyph unicode="X" horiz-adv-x="1544" d="M92 -14q-3 12 -3 24q0 24 13 45q182 305 428 654l-69 133q-43 82 -131 264q-90 186 -154 299q-11 20 -11 42q0 13 4 28q11 37 44 56q21 12 43 12q13 0 27 -4q37 -11 57 -44q57 -104 154 -303l131 -264l26 -51l523 692q25 31 62 35q6 1 11 0q31 0 58 -20q31 -24 34 -61 q1 -6 1 -12q0 -31 -19 -57l-571 -758l77 -137l86 -149l74 -136l78 -149q9 -20 9 -40q0 -15 -5 -31q-12 -36 -47 -53q-20 -10 -41 -10q-15 0 -30 5q-36 12 -54 47q-72 143 -266 485q-209 -299 -369 -567q-20 -33 -57 -43q-12 -3 -24 -3q-24 0 -46 13q-33 21 -43 58z" />
<glyph unicode="Y" horiz-adv-x="1474" d="M244 1450q4 39 32 63q25 21 57 22q5 0 11 -1q39 -4 64 -33l325 -407q49 70 112.5 135t157 150t109.5 104q28 26 65 25h3q39 -1 65 -28t26 -64q0 -41 -28 -68l-113 -107l-122 -111q-41 -41 -93 -102q-51 -63 -81 -121q-37 -70 -56 -123q-35 -106 -47 -133 q-80 -190 -227 -600q-14 -35 -49 -51q-19 -9 -39 -9q-16 0 -32 6q-36 13 -52 48q-9 20 -10 41q0 15 6 31q152 412 231 604q12 29 43 123q14 41 31 80l-369 458q-21 25 -21 57q0 5 1 11z" />
<glyph unicode="Z" horiz-adv-x="1419" d="M25 -14l-2 18q0 63 61 117l18 14q8 6 11.5 8t5.5 4l4 5q18 25 49 71l45 66q82 115 246 366q164 246 258 377q70 96 121 178q16 27 28 52h-77q-190 -2 -213 -2q-199 -6 -387 -35q-8 -1 -17 -2q-29 0 -53 18q-31 23 -37 62q-1 8 -1 16q0 29 17 53q23 31 62 37 q201 31 411 35q25 2 218 2q80 2 141 2h47q8 0 14 -2h6h7q6 0 10 -2l16 -4q31 -14 47 -45q12 -25 12 -55q0 -17 -3 -35q-6 -29 -21 -64q-23 -53 -68 -127q-55 -90 -129 -192q-100 -139 -258 -377q-164 -250 -245 -363l-64 -94q53 6 98 8q104 8 223 12.5t268.5 6.5t225.5 4h5 q34 0 61 -25q30 -28 30 -67q0 -36 -26 -64q-27 -29 -66 -29q-76 -2 -222 -5t-263 -7t-223 -10l-125 -10q-74 -6 -96 -8q-24 -1 -42 -1.5t-30 1.5q-8 2 -18.5 5t-30 12t-32.5 28.5t-17 46.5z" />
<glyph unicode="[" horiz-adv-x="974" d="M61 -395q0 8 2 18q0 18 5 49q4 51 14 142l8 96q6 53 10 85t4 36q10 111 62 493q41 301 49 484v63q0 61 2 105q4 66 14 112q20 78 66 113q8 8 19.5 13t17.5 5l6 2q4 0 10 1t15 1h36q37 0 103 -2q6 0 176 -4q39 0 65.5 -27.5t25.5 -66.5t-28.5 -65.5t-66.5 -24.5 q-170 4 -176 4h-88q-6 -29 -11 -74q-2 -37 -2 -92q2 -61 0 -72q-8 -193 -49 -499q-55 -414 -61 -486q0 -6 -3 -37.5t-9.5 -85t-10.5 -98.5q-10 -86 -14 -137q29 -2 72 2q39 4 94 14q14 2 40.5 7.5t35.5 7.5q37 6 68.5 -16.5t37.5 -60.5t-16.5 -70t-61.5 -38q-8 0 -32.5 -5 t-38.5 -7q-61 -12 -111 -16q-74 -6 -125 0q-86 12 -129 63q-16 18 -23 43v12q-2 7 -2 13z" />
<glyph unicode="\" horiz-adv-x="833" d="M25 1425q0 39 26.5 66t65.5 27t65.5 -27t26.5 -66q0 -53 10 -116.5t19.5 -100.5t33 -123t31.5 -118q49 -186 152 -465q147 -401 170 -473q12 -35 -5.5 -70t-53.5 -47t-70.5 5t-46.5 54q-23 68 -168 467q-113 307 -158 484q-6 20 -30.5 110t-35 133t-21.5 118.5t-11 141.5 z" />
<glyph unicode="]" horiz-adv-x="782" d="M-118 -396q-3 38 22.5 67.5t64.5 31.5q14 2 43 4t52.5 3t44 3t59.5 0q23 25 37 92q6 31 12 89q6 70 10 94q68 408 105 667q37 256 49 392q8 86 10 137v33q-29 8 -82 10q-43 0 -106 -4q-76 -4 -88 -4q-39 0 -65.5 26.5t-26.5 65.5t26.5 65.5t65.5 26.5q6 0 75 6 q72 4 121 4q80 -2 133 -18q96 -29 123 -105q12 -35 11 -112q-2 -57 -11 -148q-16 -154 -51 -401q-45 -313 -104 -674q-4 -16 -11 -80q-6 -68 -14 -104q-31 -154 -121 -217q-41 -29 -102 -27q-16 0 -25.5 1t-13.5 1q-2 0 -143 -10q-37 -4 -67 21.5t-33 63.5z" />
<glyph unicode="^" horiz-adv-x="1044" d="M52.5 591q-13.5 36 2.5 73q39 90 189 383l118 233l46 78l16 26q6 10 12 17q18 23 51 29q45 10 82 -19q14 -12 25 -29q8 -14 14 -32.5t17 -61.5q29 -123 45 -178q25 -80 83 -244t83 -250q12 -37 -6.5 -70.5t-55.5 -45t-70.5 7t-44.5 55.5q-27 86 -84 249t-81 245l-15 43 l-69 -135q-147 -293 -187 -379q-14 -35 -50 -48.5t-71.5 2t-49 51.5z" />
<glyph unicode="_" horiz-adv-x="1351" d="M-158 -338q0 39 27 65.5t65 26.5h123h131h119q92 0 132 -1t121 -2t131 -4t120 -6t131.5 -8t120.5 -12q39 -4 63.5 -33.5t20.5 -67.5t-34 -62.5t-66 -20.5q-70 6 -144 12l-133 9q-59 4 -143 6t-133.5 3t-144.5 2t-132 1h-145h-138q-39 0 -65.5 26.5t-26.5 65.5z" />
<glyph unicode="`" horiz-adv-x="696" d="M150.5 1376q11.5 37 44 56.5t69.5 8.5t58 -44q10 -20 26.5 -49t20.5 -37l12 -25q8 -14 11 -19t9.5 -18.5t12.5 -27.5l14 -37q8 -20 23 -56l34 -75q14 -35 0 -71t-49 -51.5t-70.5 -1t-52.5 49.5l-34 82l-25 55l-14 35q-8 20 -9.5 23.5t-9.5 19.5t-12 22.5t-21 36.5l-30 54 q-19 32 -7.5 69z" />
<glyph unicode="a" d="M-6 76q-8 31 -8 67q0 41 10 90q25 123 84 238q33 66 79 133.5t108.5 142t143.5 129t164 70.5q28 6 63 7q21 0 44 -3q4 -2 30.5 -5t41.5 -5q39 -2 64 -31q24 -27 24 -60.5t-19 -55.5q2 -4 2 -9q7 -21 7 -58q0 -9 -1 -19q-2 -154 -2 -179q4 -49 16.5 -109.5t22 -95 t36 -117.5t34.5 -112q5 -15 5 -29q0 -21 -11 -41q-18 -34 -55 -46q-14 -4 -28 -4q-22 0 -43 12q-34 18 -44 55l-27 82l-30 94q-10 35 -24.5 88t-23.5 98q-66 -106 -137 -196q-92 -115 -170 -178q-103 -81 -191 -82q-12 0 -24 2q-57 8 -93 43t-48 84zM160 133l6 2q-4 0 -6 -2 zM172 137q27 8 61 37q63 49 140 148q68 84 125 176t80 141q0 2 12 68q6 33 14 57q-94 -25 -193.5 -136.5t-166.5 -242.5q-45 -90 -66 -188q-6 -35 -6 -60z" />
<glyph unicode="b" horiz-adv-x="946" d="M70 76q0 18 2 45q4 33 16 86l21 74q12 43 12 45q27 117 131 678q10 55 43 196q27 115 37 184q6 37 37 61q24 19 53 19q8 0 15 -2q38 -6 62 -37q19 -24 18 -53q0 -8 -1 -16q-12 -74 -39 -199q-33 -137 -41 -186l-47 -252q12 4 23 6q58 15 106 15q122 0 184 -93 q42 -60 42 -143q0 -56 -19 -123q-39 -137 -142.5 -259t-230.5 -147q-6 0 -39 -8l-55 -10q-16 -2 -31 -2q-71 0 -118 41q-35 31 -39 80zM266 147l6 3q39 8 47 10q61 10 130 91t96 181q13 45 13 74q0 24 -9 37q-2 2 -6 5t-27 5h-8q-21 0 -51 -8q-20 -4 -109 -43 q-25 -119 -47 -217q0 -2 -12.5 -46t-20.5 -77z" />
<glyph unicode="c" horiz-adv-x="1140" d="M166 348q10 141 108 311q88 154 201 261q121 112 219 111q17 0 33 -3q43 -8 94 -37q4 0 26.5 -13t35.5 -20q35 -16 48 -52q6 -16 6 -32q0 -20 -9 -38q-16 -35 -52 -49q-16 -6 -32 -6q-20 0 -39 10q-4 2 -72 38q-27 14 -43 19l2 -2q-2 0 -10 -4t-17.5 -9.5t-26.5 -18.5 t-36 -32q-92 -86 -166 -215q-78 -135 -86 -233q-1 -9 0 -17q0 -66 43 -90q25 -12 38 -11t32 15q18 12 55 52q51 53 70 69q26 23 61 23h6q39 -2 64 -31q23 -26 23 -62q0 -43 -31 -69l-60 -59q-45 -47 -78 -72q-72 -52 -146 -52q-61 0 -124 33q-139 76 -139 248q0 18 2 37z " />
<glyph unicode="d" d="M139 217q0 10 2 33q2 12 2 16q0 90 29 197q27 104 80 194q63 106 164 166q68 42 150 42q38 0 79 -9h4q68 238 109 510q6 37 37 60q24 19 53 19q8 0 15 -1q38 -6 62 -37q19 -24 18 -54q0 -8 -1 -16q-53 -342 -143 -624q14 -27 9 -58.5t-28 -52.5q-10 -10 -24 -16 q-45 -127 -103 -250q-84 -180 -143 -246q-74 -84 -158 -88h-7q-102 0 -179 109q-27 38 -27 91v15zM324 209q12 -14 20 -21q10 6 27 25q43 47 114 201q57 125 107 264q-9 1 -18 1q-93 0 -162 -118q-41 -66 -62.5 -147.5t-21.5 -147.5q0 -14 -2 -37q-2 -16 -2 -20z" />
<glyph unicode="e" horiz-adv-x="1021" d="M25 246.5q0 25.5 2 57.5t2 34q0 272 151 473q20 29 72.5 81t107.5 89q80 56 147 56q9 0 17 -1q63 -6 97 -53t43 -110q1 -10 1 -20q0 -55 -36 -126q-31 -59 -84 -129q-106 -137 -191 -195q-41 -27 -141 -73q0 -25 -1 -49.5t-2 -36t1 -22.5t6 -19q44 -92 150 -93q16 0 34 3 q119 12 277 102q23 14 47 14q12 0 25 -4q37 -10 56 -44q13 -22 13 -45q0 -12 -4 -25q-10 -37 -43 -56q-195 -111 -350 -127q-28 -4 -56 -3q-84 0 -159 33q-100 44 -158 163q-12 27 -18 63.5t-6 62zM252 559q61 41 145 152q43 55 66 100q6 12 10 23l-8 -7q-41 -27 -83 -68.5 t-54 -58.5q-47 -63 -76 -141z" />
<glyph unicode="f" horiz-adv-x="1157" d="M104 25q18 96 58 233q2 10 26 94l35 127q14 49 41 168t43 180v2q-1 6 0 12q0 32 19 58q66 238 143 369q72 121 166 168q29 14 102 39l90 30q17 7 34 7q18 0 37 -8q36 -15 49 -51q6 -17 6 -33q0 -19 -8 -39q-15 -36 -52 -48q-49 -18 -101.5 -35.5t-74.5 -27.5 q-43 -23 -88 -96q-51 -86 -94 -222l86 11q6 1 11 0q32 0 58 -20q31 -24 35 -61q1 -6 1 -11q0 -31 -20 -58q-24 -31 -61 -35l-164 -20q-8 -33 -34.5 -149.5t-43.5 -178.5l-36 -129q-25 -86 -27 -94q-37 -127 -51 -215q-8 -37 -39 -60q-23 -17 -51 -17q-9 0 -18 2 q-38 7 -60 38q-18 24 -18 53q0 9 1 17z" />
<glyph unicode="g" horiz-adv-x="1222" d="M33 -451q8 23 22 45q20 29 60 66q57 55 127 107q121 90 264 161l10 33q84 279 127 514q2 4 5 19.5t5 27.5q-86 -96 -141 -141q-92 -76 -205 -107q-43 -12 -80 -12q-43 0 -80 17q-92 43 -98 167v20q0 114 66 218q72 113 182 186q74 49 154 75q67 21 141 21h30 q91 -5 166 -51q39 -23 78 -67q2 -4 17.5 -23.5t25.5 -29.5q26 -26 26 -63q0 -41 -30 -68q-18 -18 -47 -25q0 -12 -2 -25q-2 -25 -29 -172q-35 -182 -100 -422q76 29 170 58q15 5 30 5q21 0 42 -10q35 -17 46 -55q4 -14 4 -28q0 -22 -10 -43q-17 -35 -55 -45 q-176 -55 -297 -109q-35 -106 -67 -184q-68 -156 -135 -211q-106 -88 -201 -94q-9 -1 -18 -1q-65 0 -115 39q-57 44 -88 128q-8 19 -8 39t8 40zM236 449q8 0 22 4q74 23 135 71q29 25 84 82.5t84 91.5q4 6 6 12.5t8 22.5l15 37l6 10h-6q-94 0 -191 -65q-78 -51 -123 -123 q-43 -69 -43 -132q1 -9 3 -11zM236 -481q2 -6 4 -14.5t2 -12.5t-2 -4q35 2 96 53q29 23 72 115l-56 -37q-61 -47 -108 -92z" />
<glyph unicode="h" horiz-adv-x="1062" d="M140 170q1 16 12 49q2 6 10 37t12 43q8 43 30.5 131t33.5 135q68 307 251 871q14 39 21 59q12 37 46 54q20 10 41 11q15 0 30 -6q37 -12 54 -46q10 -20 10 -40q0 -15 -5 -30q-152 -461 -205 -656l4 2q82 75 162 76q11 0 23 -2q123 -16 166 -170q23 -78 23 -199 q0 -19 -1 -38q-2 -156 -41 -398q-6 -39 -38 -61q-25 -18 -53 -18q-8 0 -16 1q-38 6 -61 38q-18 25 -17 53q0 8 1 16q37 223 41 373v23q0 102 -17 161q-6 23 -14 33q-14 -6 -33 -25q-45 -39 -98 -117q-92 -135 -139 -254q-4 -10 -15 -61q-14 -66 -43 -106l-12 -17 q-25 -29 -65 -29q-35 -2 -58.5 17.5t-30 33t-8.5 23.5q-1 11 -1 22v11z" />
<glyph unicode="i" horiz-adv-x="894" d="M172 51l29 139q23 102 40 175t38 137q23 78 79 227q59 158 78 213q10 37 44 55q21 11 43 12q14 0 28 -4q37 -11 55 -46q11 -20 11 -41q0 -14 -5 -29q-20 -76 -80 -227q-55 -143 -77 -213q-18 -66 -36 -135.5t-37.5 -166t-29.5 -137.5q-8 -37 -41 -57q-23 -15 -49 -15 q-10 0 -20 3q-37 8 -58 41q-15 23 -14 48q0 10 2 21zM506 1216.5q0 38.5 26.5 65.5t65.5 27t65.5 -27t26.5 -65.5t-26.5 -65.5t-65.5 -27t-65.5 27t-26.5 65.5z" />
<glyph unicode="j" horiz-adv-x="987" d="M-190 -524q-6 22 -6 45q0 41 18 86q25 68 88 145q137 168 379 303q96 376 96 755q0 20 -1 59t-1 58q0 35 24 62q26 29 64 30h3q37 0 65 -25q29 -26 28 -64q2 -59 3 -119q0 -322 -66 -649l151 63q17 7 35 7t36 -7q36 -14 50 -50q7 -18 7 -36t-7 -36q-14 -36 -51 -50 q-170 -70 -279 -125q-29 -98 -61 -190q-47 -123 -147 -244q-63 -76 -127 -112q-61 -36 -120 -36q-33 0 -65 11q-93 33 -116 119zM-8 -467q10 0 26 8q35 20 76 72q61 72 103 160q-82 -66 -144 -140q-43 -53 -59 -92q0 -4 -2 -8zM399 1300.5q0 38.5 27 65.5t65.5 27t65.5 -27 t27 -65.5t-27 -65.5t-65.5 -27t-65.5 27t-27 65.5z" />
<glyph unicode="k" horiz-adv-x="1204" d="M106 53l117 473q-1 5 0 11q0 27 17 51q102 387 247 876q10 37 44 56q21 11 44 11q14 0 27 -4q37 -11 55 -45q11 -20 11 -42q0 -14 -4 -29l-187 -651l31 22q178 131 248 179q25 17 52 17q9 0 18 -2q38 -7 60 -39q16 -24 16 -51q0 -9 -2 -19q-7 -38 -38 -58 q-47 -31 -244 -176l-61 -45q276 -287 424 -488q20 -25 20 -53q0 -7 -2 -15q-6 -38 -36 -62q-24 -19 -54 -18q-8 0 -15 1q-38 6 -60 37q-145 197 -431 491q-63 -244 -116 -469q-8 -39 -41 -58q-23 -14 -49 -14q-11 0 -22 3q-38 8 -57 41q-14 23 -14 48q0 10 2 21z" />
<glyph unicode="l" horiz-adv-x="946" d="M172 145q27 109 63.5 237t65.5 216l80 238q51 150 74 221q8 25 16 53l18 57q10 33 15 52q31 100 59 170q14 35 50 50q19 8 37 8q17 0 34 -7q35 -14 50 -50q8 -19 8 -37q0 -17 -7 -34q-25 -61 -53 -156q-6 -16 -16 -49l-19 -61q-8 -29 -16 -54l-74 -219l-76 -231 q-29 -88 -65.5 -213t-63.5 -236q-8 -37 -41 -56q-23 -14 -48 -14q-11 0 -22 3q-38 8 -58 41q-14 23 -13 49q0 10 2 22z" />
<glyph unicode="m" horiz-adv-x="1630" d="M137 53q55 483 260 768q6 8 13.5 23.5t19.5 36.5q45 80 119 92q16 2 30 2q47 0 84 -25q48 -33 72 -86q23 -41 35 -102q16 27 35 49q68 90 119 143q109 109 206 119q17 2 34 2q71 0 123 -36q65 -44 97 -121q42 -94 42 -258q0 -21 -1 -44q-2 -96 -16 -198 q-12 -109 -29.5 -204t-17.5 -101q-4 -39 -35 -62q-26 -19 -58 -19q-6 0 -12 1q-39 4 -61 35q-19 26 -19 57q0 6 1 12q2 18 18 110.5t28.5 190t16.5 185.5q0 18 1 34q0 124 -28 187q-12 29 -26 38t-41 7q-31 -4 -90 -66q-45 -43 -105 -123q-27 -37 -49 -78.5t-43.5 -106 t-30 -92.5t-32 -120t-27.5 -106q-2 -4 -2 -7.5t-1 -13.5t-3 -20q-6 -57 -35 -95l-6 -8q-20 -57 -45 -92q-8 -14 -16 -22q-23 -25 -54 -33q-13 -3 -25 -3q-44 0 -73 40q-18 27 -18 59q2 18 8 39q25 63 61 109q31 92 41 210q7 74 7 143q0 78 -9 150q-8 68 -22 109 q-18 -35 -29 -51q-178 -244 -227 -678q-4 -39 -34 -63q-25 -20 -58 -20q-6 0 -11 1q-39 4 -62 34q-20 25 -20 57q-1 5 0 11z" />
<glyph unicode="n" horiz-adv-x="1067" d="M-31 29l19 168q14 131 25.5 218t25.5 167q8 43 27 110q20 74 26 99q0 6 14 92q4 35 9 49q4 12 10 22q12 20 31 35q26 16 51 16q27 0 53 -18q23 -16 33 -41q4 -8 6 -16t2 -19q2 -18 2 -41q0 -46 -8 -108q76 74 162 117q4 0 8 4q107 52 187 52q24 0 46 -5q70 -12 103 -90 q8 -16 14 -39q0 -2 3 -11.5t3 -13.5q43 -136 43 -285q0 -242 -112 -520q-14 -35 -51 -50q-19 -8 -36 -8t-34 7q-35 14 -50 50q-8 19 -8 37q0 17 7 34q99 245 98 452q0 120 -33 226q-2 2 -8 29q-29 -4 -98 -37q-117 -55 -203 -195q-84 -137 -121 -301q-2 -10 -12 -82 q-10 -63 -27 -106q-4 -12 -12 -23q-6 -8 -14 -14q-10 -31 -38 -49.5t-61 -14.5q-39 4 -62 35q-20 26 -20 57q-1 6 0 11z" />
<glyph unicode="o" horiz-adv-x="888" d="M-55 193q-5 34 -5 69q0 95 31 205q41 139 117 252q88 129 186 166q14 6 29 8q27 25 60 25q11 0 22 -3q10 0 29 -2l41 -4q72 -6 116 -39q113 -80 113 -261v-19q-4 -156 -78 -322q-80 -176 -196 -264q-93 -70 -188 -70q-65 0 -130 33q-124 64 -147 226zM129 219 q8 -68 49 -88q20 -10 41 -10q37 0 78 31q80 61 139 192q64 140 64 260q0 84 -33 113q-25 -21 -57 -21h-11q-4 0 -61 13h-4q-43 -20 -92 -93q-59 -90 -92 -200q-24 -83 -24 -150q0 -25 3 -47z" />
<glyph unicode="p" horiz-adv-x="1083" d="M63 -461q-3 45 -3 96q0 216 64 526q79 382 193 593q2 0 15 24l20 39l25 43q16 25 33.5 47.5t35.5 40.5q66 70 140 80q17 3 33 3q80 0 151 -66q68 -61 93 -152q18 -63 18 -122q0 -26 -3 -51q-11 -83 -44 -165q-49 -123 -138.5 -222t-193.5 -132q-59 -18 -201 -23 q-56 -274 -56 -460q0 -44 3 -82q1 -5 0 -11q0 -32 -22 -58q-26 -30 -63 -33h-8q-33 0 -60 23q-30 25 -32 62zM344 287q68 0 100 10q55 18 118 87t100 161q32 85 32 151q0 9 -1 19q-5 74 -50 114q-10 8 -16 12.5t-11 4.5h-2q-12 -2 -34 -27q-31 -31 -99 -155 q-74 -137 -137 -377z" />
<glyph unicode="q" horiz-adv-x="1052" d="M79 211q-6 41 -7 80q0 54 13 103q22 85 65 171q63 125 158 230.5t186 146.5q33 14 76.5 24.5t90 15.5t52.5 7l16 2q30 0 55 -18q39 -16 56 -60q8 -18 8 -43q1 -7 0 -14q0 -23 -4 -57q-6 -57 -29 -187l-18 -96q-10 -53 -18.5 -89t-14.5 -67.5t-8 -33.5q-80 -395 -166 -928 q-6 -39 -38 -62q-25 -18 -54 -17q-8 0 -16 1q-38 6 -60 38q-18 25 -18 53q0 8 2 16q72 428 131 745q-51 -76 -101 -117q-61 -53 -125 -61q-12 -1 -23 -2q-68 0 -122 53q-72 68 -87 166zM258 293v-15q0 -70 35 -98q8 4 22 15q53 47 125 176q59 106 107 219q49 119 65 172 q2 6 2 24q-23 -4 -43 -12q-57 -27 -130.5 -108.5t-125.5 -182.5q-53 -108 -57 -190z" />
<glyph unicode="r" horiz-adv-x="1105" d="M47 56q0 19 6 46l8 41q4 29 7 39q14 106 43 201q31 184 84 393l14 55q2 10 4 14.5t2 8.5q4 10 12 23q14 23 39 32q18 8 36 8q16 0 32 -6q31 -10 49 -37q8 -12 10 -28q61 51 129 80q48 20 129 19q20 0 43 -1q29 -2 74 -7t49 -5q37 -2 63 -32q23 -27 22 -59v-8 q-3 -38 -33 -64q-26 -22 -58 -22q-5 0 -10 1q-2 0 -45 4t-72 6q-23 1 -41 1q-35 0 -47 -5q-182 -76 -297 -394l-20 -114l-3 -15q-14 -113 -18 -219q0 -39 -29 -64q-27 -24 -61 -24h-6q-59 2 -82 58q-14 12 -23 28q-10 22 -10 46z" />
<glyph unicode="s" horiz-adv-x="958" d="M-53 46q4 38 35 62q26 20 58 20q6 0 11 -1q48 -6 88 -6q92 0 142 33q52 35 51 124q0 27 -4 60l-4 16q-2 8 -5.5 13.5t-11.5 15.5t-12 14t-19 21l-22 22q-85 89 -85 200q0 31 7 65q33 164 215 241q96 41 258 62q6 1 12 0q32 0 58 -20q31 -24 35 -61q1 -6 0 -11 q0 -31 -20 -58q-24 -31 -60 -35q-137 -18 -209 -49q-94 -39 -109 -106q-6 -37 1.5 -55.5t31.5 -43.5q2 -4 17 -20l24 -25q10 -8 25.5 -28.5t24.5 -38t18.5 -43t13.5 -52.5q6 -44 6 -83q0 -187 -135 -279q-95 -65 -248 -65q-51 0 -108 8q-37 4 -61 34q-20 26 -20 58q0 5 1 11 z" />
<glyph unicode="t" horiz-adv-x="866" d="M76 182q0 63 20 158q27 119 88 285q-35 27 -34 69q-2 39 24.5 68t63.5 29h10q115 281 237 528q18 35 55 47q15 5 29 5q21 0 41 -10q35 -17 47 -53q5 -15 6 -31q0 -20 -10 -40q-98 -195 -194 -424l90 16l16 2q29 0 55 -18q32 -23 37 -60l2 -16q0 -29 -18 -54 q-23 -32 -59 -38q-53 -8 -95.5 -15t-60.5 -12l-31 -6q-10 0 -18 -2q-72 -186 -98 -311q-16 -74 -17 -119q0 -14 2 -24q23 -12 84 -13q35 2 84 7q10 2 25.5 4t28 3t18.5 1q5 1 10 0q32 0 58 -22q33 -29 34 -71q0 -33 -23 -60q-26 -30 -63 -32q-10 -2 -33.5 -4t-33.5 -4 q-59 -6 -103 -6h-8q-153 0 -221 76q-45 51 -45 147z" />
<glyph unicode="u" horiz-adv-x="1175" d="M96 195q-1 20 -1 42q0 111 34 267q61 279 166 510q14 37 50 50q17 6 33 6l39 -8q36 -15 49 -51q6 -16 6 -32q0 -20 -9 -39q-96 -217 -152 -475q-30 -136 -29 -227q0 -16 1 -31q4 -80 30 -94q24 -13 49 -13l87 39q80 72 157 252q88 197 182 592q8 37 41 56q23 14 49 14 q11 0 22 -2q38 -8 57 -41q14 -23 14 -49q0 -11 -2 -23q-98 -408 -192.5 -623t-203.5 -313q-100 -90 -206 -90q-68 0 -140 37q-119 62 -131 246z" />
<glyph unicode="v" horiz-adv-x="1355" d="M137 926q-1 6 0 11q0 32 21 57q25 30 62 34q5 1 11 1q31 0 57 -21q30 -25 34 -62q35 -319 61 -479q27 -168 53 -262l8 -29q6 8 64 105q14 20 63 100l68 111q16 29 61 98l70 106l66 97q39 57 75 106l76 96q23 31 62 35q6 1 11 1q32 0 57 -20q30 -24 34 -63q1 -6 1 -11 q0 -32 -22 -56l-69 -95q-35 -45 -74 -100l-61 -92q-27 -37 -70 -107l-61 -94l-66 -110l-61 -101q-63 -102 -78 -121q-35 -47 -68 -73q-47 -37 -96 -38q-21 0 -41 7q-53 18 -88 90q-20 41 -41 107q-29 106 -57.5 284.5t-61.5 487.5z" />
<glyph unicode="w" horiz-adv-x="1630" d="M76 315q4 109 45 275q29 115 76 264q49 154 51 158q10 39 43 58q21 13 45 13q12 0 25 -4q38 -10 58 -43q13 -21 13 -44q0 -12 -4 -25q-2 -8 -53 -170q-47 -147 -74 -252q-37 -147 -41 -238q0 -37 8 -74q16 -10 35 -10q4 4 6 8q16 25 37 68q35 70 94 213q82 197 92 219 q23 53 39 84q31 53 64 72q23 12 46 12l32 -6q35 -14 51 -47q10 -18 10 -39v-27q-2 -12 -8 -55q-12 -106 -18 -193q0 -8 -3.5 -50t-4.5 -60.5t-2 -53t1 -61t9 -51.5q10 -57 34 -82q18 -20 62 -20q4 4 10 8q23 23 55 69q61 92 140 254q117 250 196 476q12 37 47 53q20 9 41 9 q15 0 31 -5q37 -12 53 -47q9 -20 10 -41q0 -15 -6 -31q-84 -236 -204 -493q-84 -174 -154 -277q-43 -66 -82 -102q-59 -55 -121 -58h-18q-119 0 -193 76q-63 63 -84 176q-8 39 -10 86q-23 -53 -41 -90q-27 -53 -49 -88q-35 -51 -74 -72q-49 -18 -94 -18q-15 0 -30 2 q-58 8 -105 39q-87 57 -87 208q0 13 1 27z" />
<glyph unicode="x" horiz-adv-x="1157" d="M185 35q-4 14 -4 27q0 22 12 42q113 215 243 414q-139 223 -229 414q-9 19 -9 39q0 16 6 31q13 36 48 53q19 9 39 9q16 0 32 -6q36 -13 52 -48q72 -152 176 -326q115 156 240 303q25 29 62 32h8q33 0 60 -23q33 -29 33 -71q0 -33 -24 -61q-143 -166 -273 -350l240 -369 q15 -22 15 -47q0 -10 -3 -21q-8 -38 -40 -59q-23 -15 -48 -14q-10 0 -21 2q-38 8 -59 41l-194 299q-100 -160 -191 -328q-18 -35 -55 -46q-14 -4 -27 -4q-22 0 -44 12q-34 18 -45 55z" />
<glyph unicode="y" horiz-adv-x="1284" d="M-82 -451q4 20 14 43q14 31 41 72q53 76 109 129q150 139 395 234q23 72 45 155q-27 -18 -53 -24q-35 -9 -66 -9q-105 0 -176 95q-61 80 -88 227q-8 45 -14 96t-8 101.5t-3 86.5t-1 76v52q-2 39 24.5 66.5t65.5 28.5h3q37 0 63 -26q28 -27 28 -65q0 -4 1 -69.5t2 -101.5 t7 -98.5t15 -111.5q20 -106 53 -150q18 -25 45 -18q6 4 16 14q20 23 45 64q29 49 66 125l2 8l8 22l27 68l24 66q6 16 10.5 24t6.5 14q8 12 22 25q28 23 58 23q21 0 43 -11q43 -23 51 -69q3 -18 2 -43q0 -74 -23 -203t-76 -330l-10 -39l273 72q13 4 25 3q23 0 44 -12 q33 -19 43 -58q4 -13 4 -25q0 -24 -13 -45q-19 -33 -58 -43q-311 -82 -385 -107l-27 -71q-61 -166 -115 -224q-33 -35 -92 -81t-123 -78q-37 -16 -73.5 -27.5t-84.5 -16.5q-9 -1 -19 -1q-39 0 -76 17q-46 22 -78 69q-20 28 -20 63q0 9 1 18zM137 -426q20 6 47 20 q98 49 164 119q14 14 39 70q-104 -55 -178 -125q-35 -33 -72 -84zM614 682q0 -2 2 -6z" />
<glyph unicode="z" horiz-adv-x="1232" d="M41 872q27 25 62 25h6q106 -4 241 -4h154q6 0 12 2t21 6q14 4 38 8q25 5 47 5q82 0 119 -68q16 -27 16 -61q0 -23 -7 -50q-8 -35 -33 -80q-37 -68 -111 -168q-47 -66 -121.5 -160t-81.5 -104l-75 -104q76 0 192 4q109 2 412 18h5q34 0 60 -23q29 -26 31 -64v-5 q0 -34 -23 -61q-26 -29 -65 -31q-315 -16 -414 -20q-109 -3 -188 -3h-72q-61 4 -96 9q-27 4 -43 10q-45 16 -64 53q-15 29 -14 57q0 30 17 60q16 27 49 51l20 14l12 9l7 3q2 1 2 3q12 14 96 131q8 8 82 102l123 160q47 66 75 115q-16 -2 -28 -2h-154q-139 0 -250 4 q-37 0 -63 28t-26 64q0 39 30 67z" />
<glyph unicode="{" horiz-adv-x="1167" d="M104 543q-6 25 2 47q16 57 89 98l18 10q25 47 33 140l8 94q4 61 8 96q25 180 123 336q125 195 305 231q27 6 59.5 9.5t68.5 4.5t46 1q37 4 67 -21.5t33 -63.5t-23 -68t-64 -32q-25 -2 -57 -3t-52 -2t-41 -5q-104 -23 -184 -151q-78 -119 -97 -260q-4 -29 -8 -86 q-4 -72 -8 -101q-12 -135 -59 -215q-18 -35 -60 -61l13 -25l36 -67q23 -43 29 -64q6 -25 9 -55.5t3 -71.5v-70q0 -25 -3 -77t-3 -66q-4 -104 2 -158q4 -59 15 -73q12 -16 45 -37l41 -25q31 -18 49 -31q31 -25 37 -62.5t-17.5 -68t-61.5 -37t-69 16.5q-12 10 -33 22l-45 27 q-66 41 -98 88q-39 55 -49 164q-6 66 -2 180q2 23 4 75t2 71.5t1 53.5t-1 54.5t-6 34.5l-12 22l-35 64l-35 63q-8 14 -12 25q-4 8 -6 14q-5 9 -5 15z" />
<glyph unicode="|" horiz-adv-x="641" d="M121 -285q-8 717 131 1764q6 39 35.5 61.5t68.5 17t61.5 -35t18.5 -68.5q-137 -1032 -131 -1739q2 -37 -25.5 -64.5t-65.5 -28.5t-65.5 26.5t-27.5 66.5z" />
<glyph unicode="}" horiz-adv-x="897" d="M-158 -439q-6 38 16.5 69.5t59.5 37.5t78 10t68.5 8.5t54.5 14.5q92 31 167.5 138.5t90.5 217.5q2 18 2 28.5t-1 44.5t-1 60q0 90 12 144q-31 25 -35 61q-4 12 -2 29q0 18 4 49q8 59 31 184q10 45 45 105q25 37 29 49q31 98 -16.5 224t-139.5 225q-18 18 -42.5 35.5 t-45.5 27.5l-61 29l-64 30q-35 18 -47 54.5t5.5 71t53 47t70.5 -4.5q8 -6 56.5 -27.5t75 -35.5t67.5 -43t67 -58q53 -57 96.5 -124.5t79 -154.5t41 -173t-19.5 -180q-6 -20 -19 -43q29 -16 48 -45q14 -27 20 -68q8 -59 4 -182q-2 -57 -49 -94q-18 -16 -53 -31l-21 -8 q-6 -29 -6 -90q2 -152 0 -160q-20 -156 -127 -307q-104 -147 -254 -201q-35 -12 -78 -21q-45 -6 -92 -12q-43 -6 -59 -8q-39 -6 -71 16.5t-38 60.5z" />
<glyph unicode="~" horiz-adv-x="1341" d="M14.5 571.5q-10.5 36.5 10.5 69.5q4 10 12 29l18 39q27 59 64 92q57 55 123.5 76.5t133 11.5t116 -27.5t108.5 -46.5l94 -51q53 -29 82 -41q61 -29 82 -20.5t55 32.5q78 57 80 60q33 20 71 13t58.5 -40t13 -71t-39.5 -58l-23 -16q-12 -8 -25.5 -19.5t-23.5 -17.5 q-55 -41 -104 -60q-88 -31 -220 27q-35 16 -94 47l-90 49q-100 49 -159.5 54.5t-110.5 -37.5q-10 -10 -23 -37l-16 -35q-12 -29 -23 -43q-18 -35 -55 -45t-70.5 9.5t-44 56z" />
<glyph unicode="&#xaa;" d="M-6 76q-8 31 -8 67q0 41 10 90q25 123 84 238q33 66 79 133.5t108.5 142t143.5 129t164 70.5q28 6 63 7q21 0 44 -3q4 -2 30.5 -5t41.5 -5q39 -2 64 -31q24 -27 24 -60.5t-19 -55.5q2 -4 2 -9q7 -21 7 -58q0 -9 -1 -19q-2 -154 -2 -179q4 -49 16.5 -109.5t22 -95 t36 -117.5t34.5 -112q5 -15 5 -29q0 -21 -11 -41q-18 -34 -55 -46q-14 -4 -28 -4q-22 0 -43 12q-34 18 -44 55l-27 82l-30 94q-10 35 -24.5 88t-23.5 98q-66 -106 -137 -196q-92 -115 -170 -178q-103 -81 -191 -82q-12 0 -24 2q-57 8 -93 43t-48 84zM160 133l6 2q-4 0 -6 -2 zM172 137q27 8 61 37q63 49 140 148q68 84 125 176t80 141q0 2 12 68q6 33 14 57q-94 -25 -193.5 -136.5t-166.5 -242.5q-45 -90 -66 -188q-6 -35 -6 -60z" />
<glyph unicode="&#xad;" horiz-adv-x="772" d="M41 474q2 38 30.5 63.5t65.5 23.5q225 -12 346 -22q39 -4 63.5 -33t20.5 -68t-32.5 -63.5t-67.5 -20.5q-123 10 -338 23q-39 2 -64.5 30.5t-23.5 66.5z" />
<glyph unicode="&#xb2;" horiz-adv-x="1073" d="M55 88q2 12 6 27q2 10 11 24q8 18 24 45q25 43 72 111l117 168l59 78l57 82l52 73q29 41 49 82q31 59 80 185q47 125 67 233q20 117 0 152l-2 2q-20 8 -82 -15q-27 -10 -53 -24l-61 -33l-64 -35q-35 -18 -71.5 -6t-54 46t-5.5 71t45 53l55 31q39 23 76 41t68 28 q217 82 307 -61q59 -96 24 -283q-23 -127 -75 -266q-53 -139 -90 -209l-56 -90q-33 -51 -57 -82l-61 -86q-41 -55 -56 -78l-114 -162l-21 -30q55 0 139 6q82 4 201 12t131 8q39 2 67.5 -23.5t29.5 -64.5t-24.5 -67.5t-64.5 -28.5q-14 -2 -131 -10t-198 -12q-127 -6 -203 -7 q-49 2 -80 7q-20 2 -37 8q-35 12 -55.5 38.5t-20.5 61.5z" />
<glyph unicode="&#xb3;" horiz-adv-x="1013" d="M8 -5q-8 38 12.5 69.5t57.5 39.5q33 8 75 15.5t71.5 13.5t58.5 17q74 27 139 71q66 47 102 103q78 115 -2 225q-2 2 -41 18l-2 2h-6h-10q-4 0 -15.5 1t-23.5 1q-123 12 -141 109q-14 72 43 117q25 20 65 32q12 2 22.5 5.5t15.5 4.5t8 2t5 1q125 86 162 182t8 133 q-33 39 -143 39q-25 0 -48.5 -4t-58 -11t-63.5 -12q-39 -6 -69.5 17.5t-37 61.5t17 69t60.5 37q12 2 51 9t77 12t67 5q201 2 291 -106q98 -121 20 -320q-51 -131 -184 -233q53 -27 82 -66q53 -74 68.5 -153.5t-2 -148t-62.5 -132.5q-55 -84 -145.5 -148.5t-188.5 -99.5 q-33 -12 -75 -21t-89 -17.5t-61 -10.5q-39 -8 -71 12.5t-40 58.5z" />
<glyph unicode="&#xb9;" horiz-adv-x="962" d="M229 12q45 279 164 717q152 561 182 696q8 37 41 57.5t70 12.5t57.5 -41t12.5 -70q-25 -113 -185 -704q-115 -426 -157 -696q-6 -39 -38 -61.5t-70 -16.5t-60.5 37.5t-16.5 68.5z" />
<glyph unicode="&#xba;" horiz-adv-x="888" d="M-55 193q-5 34 -5 69q0 95 31 205q41 139 117 252q88 129 186 166q14 6 29 8q27 25 60 25q11 0 22 -3q10 0 29 -2l41 -4q72 -6 116 -39q113 -80 113 -261v-19q-4 -156 -78 -322q-80 -176 -196 -264q-93 -70 -188 -70q-65 0 -130 33q-124 64 -147 226zM129 219 q8 -68 49 -88q20 -10 41 -10q37 0 78 31q80 61 139 192q64 140 64 260q0 84 -33 113q-25 -21 -57 -21h-11q-4 0 -61 13h-4q-43 -20 -92 -93q-59 -90 -92 -200q-24 -83 -24 -150q0 -25 3 -47z" />
<glyph unicode="&#xbc;" horiz-adv-x="3045" d="M1958 193l2 6q2 8 4 14q2 4 4 10q0 2 2 6l6 13l19 30l51 88q14 29 35 62l28 51q12 18 13 21q39 70 94 198q70 158 96 213l141 271q96 182 144 278q16 35 53 47t71.5 -4t47 -53t-3.5 -72l-2 -2q0 -6 -3 -14q-100 -451 -184 -1030q31 6 68 12t59.5 9t30.5 5 q39 6 69.5 -17.5t37 -61t-17.5 -68.5t-60 -37l-43 -8q-31 -4 -79 -11.5t-91 -15.5l-48 -362q-4 -37 -34.5 -60.5t-68.5 -19.5t-61.5 34.5t-19.5 69.5l41 309q-121 -16 -194 -20q-53 -4 -86 -2q-25 2 -41 6q-49 14 -68 53q-8 14 -10 29t-2 23zM2210 274q61 6 155 19l21 4 q37 262 75 489q-12 -25 -73 -168q-59 -137 -103 -215q-2 0 -12 -18l-29 -53zM523 7.5q-6 64.5 34 115.5q500 604 875 1298q31 57 92.5 76t118.5 -12t75.5 -92.5t-12.5 -118.5q-389 -721 -907 -1352q-41 -49 -105.5 -55t-114.5 35t-56 105.5zM229 12q45 279 164 717 q152 561 182 696q8 37 41 57.5t70 12.5t57.5 -41t12.5 -70q-25 -113 -185 -704q-115 -426 -157 -696q-6 -39 -38 -61.5t-70 -16.5t-60.5 37.5t-16.5 68.5z" />
<glyph unicode="&#xbd;" horiz-adv-x="3002" d="M1984 88q2 12 6 27q2 10 11 24q8 18 24 45q25 43 72 111l117 168l59 78l57 82l52 73q29 41 49 82q31 59 80 185q47 125 67 233q20 117 0 152l-2 2q-20 8 -82 -15q-27 -10 -53 -24l-61 -33l-64 -35q-35 -18 -71.5 -6t-54 46t-5.5 71t45 53l55 31q39 23 76 41t68 28 q217 82 307 -61q59 -96 24 -283q-23 -127 -75 -266q-53 -139 -90 -209l-56 -90q-33 -51 -57 -82l-61 -86q-41 -55 -56 -78l-114 -162l-21 -30q55 0 139 6q82 4 201 12t131 8q39 2 67.5 -23.5t29.5 -64.5t-24.5 -67.5t-64.5 -28.5q-14 -2 -131 -10t-198 -12q-127 -6 -203 -7 q-49 2 -80 7q-20 2 -37 8q-35 12 -55.5 38.5t-20.5 61.5zM523 7.5q-6 64.5 34 115.5q500 604 875 1298q31 57 92.5 76t118.5 -12t75.5 -92.5t-12.5 -118.5q-389 -721 -907 -1352q-41 -49 -105.5 -55t-114.5 35t-56 105.5zM229 12q45 279 164 717q152 561 182 696 q8 37 41 57.5t70 12.5t57.5 -41t12.5 -70q-25 -113 -185 -704q-115 -426 -157 -696q-6 -39 -38 -61.5t-70 -16.5t-60.5 37.5t-16.5 68.5z" />
<glyph unicode="&#xbe;" horiz-adv-x="3096" d="M2009 193l2 6q2 8 4 14q2 4 4 10q0 2 2 6l6 13l19 30l51 88q14 29 35 62l28 51q12 18 13 21q39 70 94 198q70 158 96 213l141 271q96 182 144 278q16 35 53 47t71.5 -4t47 -53t-3.5 -72l-2 -2q0 -6 -3 -14q-100 -451 -184 -1030q31 6 68 12t59.5 9t30.5 5 q39 6 69.5 -17.5t37 -61t-17.5 -68.5t-60 -37l-43 -8q-31 -4 -79 -11.5t-91 -15.5l-48 -362q-4 -37 -34.5 -60.5t-68.5 -19.5t-61.5 34.5t-19.5 69.5l41 309q-121 -16 -194 -20q-53 -4 -86 -2q-25 2 -41 6q-49 14 -68 53q-8 14 -10 29t-2 23zM2261 274q61 6 155 19l21 4 q37 262 75 489q-12 -25 -73 -168q-59 -137 -103 -215q-2 0 -12 -18l-29 -53zM574 7.5q-6 64.5 34 115.5q500 604 875 1298q31 57 92.5 76t118.5 -12t75.5 -92.5t-12.5 -118.5q-389 -721 -907 -1352q-41 -49 -105.5 -55t-114.5 35t-56 105.5zM8 -5q-8 38 12.5 69.5t57.5 39.5 q33 8 75 15.5t71.5 13.5t58.5 17q74 27 139 71q66 47 102 103q78 115 -2 225q-2 2 -41 18l-2 2h-6h-10q-4 0 -15.5 1t-23.5 1q-123 12 -141 109q-14 72 43 117q25 20 65 32q12 2 22.5 5.5t15.5 4.5t8 2t5 1q125 86 162 182t8 133q-33 39 -143 39q-25 0 -48.5 -4t-58 -11 t-63.5 -12q-39 -6 -69.5 17.5t-37 61.5t17 69t60.5 37q12 2 51 9t77 12t67 5q201 2 291 -106q98 -121 20 -320q-51 -131 -184 -233q53 -27 82 -66q53 -74 68.5 -153.5t-2 -148t-62.5 -132.5q-55 -84 -145.5 -148.5t-188.5 -99.5q-33 -12 -75 -21t-89 -17.5t-61 -10.5 q-39 -8 -71 12.5t-40 58.5z" />
<glyph unicode="&#xc0;" horiz-adv-x="1173" d="M562.5 2162q11.5 37 44 56.5t69.5 8.5t58 -44q10 -20 26.5 -49t20.5 -37l12 -25q8 -14 11 -19t9.5 -18.5t12.5 -27.5l14 -37q8 -20 23 -56l34 -75q14 -35 0 -71t-49 -51.5t-70.5 -1t-52.5 49.5l-34 82l-25 55l-14 35q-8 20 -9.5 23.5t-9.5 19.5t-12 22.5t-21 36.5l-30 54 q-19 32 -7.5 69zM29 39q197 616 495 1204l72 141l57 103l27 43q10 10 16 18q20 20 43 29q27 10 52 10q46 0 79 -37q33 -33 39 -98q2 -23 4 -96q2 -78 7 -133q49 -688 49 -1098q0 -39 -27 -65.5t-65.5 -26.5t-65.5 26.5t-27 65.5q0 285 -18 627l-264 10q-168 -377 -297 -780 q-12 -37 -46 -55q-20 -10 -41 -10q-15 0 -30 5q-37 12 -54 46q-10 20 -10 41q0 15 5 30zM584 944q33 -2 170 -6l-19 272q-2 16 -2 33l-45 -86z" />
<glyph unicode="&#xc2;" horiz-adv-x="1173" d="M439.5 1803q-13.5 36 2.5 73q39 90 189 383l118 233l46 78l16 26q6 10 12 17q18 23 51 29q45 10 82 -19q14 -12 25 -29q8 -14 14 -32.5t17 -61.5q29 -123 45 -178q25 -80 83 -244t83 -250q12 -37 -6.5 -70.5t-55.5 -45t-70.5 7t-44.5 55.5q-27 86 -84 249t-81 245l-15 43 l-69 -135q-147 -293 -187 -379q-14 -35 -50 -48.5t-71.5 2t-49 51.5zM29 39q197 616 495 1204l72 141l57 103l27 43q10 10 16 18q20 20 43 29q27 10 52 10q46 0 79 -37q33 -33 39 -98q2 -23 4 -96q2 -78 7 -133q49 -688 49 -1098q0 -39 -27 -65.5t-65.5 -26.5t-65.5 26.5 t-27 65.5q0 285 -18 627l-264 10q-168 -377 -297 -780q-12 -37 -46 -55q-20 -10 -41 -10q-15 0 -30 5q-37 12 -54 46q-10 20 -10 41q0 15 5 30zM584 944q33 -2 170 -6l-19 272q-2 16 -2 33l-45 -86z" />
<glyph unicode="&#xc3;" horiz-adv-x="1173" d="M274.5 1779.5q-10.5 36.5 10.5 69.5q4 10 12 29l18 39q27 59 64 92q57 55 123.5 76.5t133 11.5t116 -27.5t108.5 -46.5l94 -51q53 -29 82 -41q61 -29 82 -20.5t55 32.5q78 57 80 60q33 20 71 13t58.5 -40t13 -71t-39.5 -58l-23 -16q-12 -8 -25.5 -19.5t-23.5 -17.5 q-55 -41 -104 -60q-88 -31 -220 27q-35 16 -94 47l-90 49q-100 49 -159.5 54.5t-110.5 -37.5q-10 -10 -23 -37l-16 -35q-12 -29 -23 -43q-18 -35 -55 -45t-70.5 9.5t-44 56zM29 39q197 616 495 1204l72 141l57 103l27 43q10 10 16 18q20 20 43 29q27 10 52 10q46 0 79 -37 q33 -33 39 -98q2 -23 4 -96q2 -78 7 -133q49 -688 49 -1098q0 -39 -27 -65.5t-65.5 -26.5t-65.5 26.5t-27 65.5q0 285 -18 627l-264 10q-168 -377 -297 -780q-12 -37 -46 -55q-20 -10 -41 -10q-15 0 -30 5q-37 12 -54 46q-10 20 -10 41q0 15 5 30zM584 944q33 -2 170 -6 l-19 272q-2 16 -2 33l-45 -86z" />
<glyph unicode="&#xc8;" horiz-adv-x="1271" d="M455.5 2152q11.5 37 44 56.5t69.5 8.5t58 -44q10 -20 26.5 -49t20.5 -37l12 -25q8 -14 11 -19t9.5 -18.5t12.5 -27.5l14 -37q8 -20 23 -56l34 -75q14 -35 0 -71t-49 -51.5t-70.5 -1t-52.5 49.5l-34 82l-25 55l-14 35q-8 20 -9.5 23.5t-9.5 19.5t-12 22.5t-21 36.5l-30 54 q-19 32 -7.5 69zM115 49q-1 5 -1 9.5t1 9.5q0 6 2 12q0 4 2 6v4l2 2v4l4 8l12 33l39 99q59 152 78 206q14 43 149 519q92 326 177 526q6 12 14 22q8 31 34 51q23 18 52 17h6q135 -2 289 -2q39 0 65.5 -26.5t26.5 -65.5t-26.5 -65.5t-65.5 -26.5h-234q-76 -184 -159 -482 l-25 -86l131 19q6 1 11 0q30 0 57 -19q31 -23 36 -60v-14q0 -30 -18 -55q-23 -31 -61 -37l-211 -28q-35 -129 -72 -244q-20 -63 -80 -217l-16 -41q15 -1 33 -1t39 1q41 0 88 2t90 5t55 3h6q35 0 61 -23q30 -28 29 -71q0 -35 -23 -60q-26 -28 -65 -30q-12 -2 -56 -4t-92 -5 t-89 -3q-22 -1 -41 -1q-59 0 -101 5q-35 4 -61 12q-47 12 -72 43q-18 22 -20 49z" />
<glyph unicode="&#xca;" horiz-adv-x="1271" d="M333.5 1795q-13.5 36 2.5 73q39 90 189 383l118 233l46 78l16 26q6 10 12 17q18 23 51 29q45 10 82 -19q14 -12 25 -29q8 -14 14 -32.5t17 -61.5q29 -123 45 -178q25 -80 83 -244t83 -250q12 -37 -6.5 -70.5t-55.5 -45t-70.5 7t-44.5 55.5q-27 86 -84 249t-81 245l-15 43 l-69 -135q-147 -293 -187 -379q-14 -35 -50 -48.5t-71.5 2t-49 51.5zM115 49q-1 5 -1 9.5t1 9.5q0 6 2 12q0 4 2 6v4l2 2v4l4 8l12 33l39 99q59 152 78 206q14 43 149 519q92 326 177 526q6 12 14 22q8 31 34 51q23 18 52 17h6q135 -2 289 -2q39 0 65.5 -26.5t26.5 -65.5 t-26.5 -65.5t-65.5 -26.5h-234q-76 -184 -159 -482l-25 -86l131 19q6 1 11 0q30 0 57 -19q31 -23 36 -60v-14q0 -30 -18 -55q-23 -31 -61 -37l-211 -28q-35 -129 -72 -244q-20 -63 -80 -217l-16 -41q15 -1 33 -1t39 1q41 0 88 2t90 5t55 3h6q35 0 61 -23q30 -28 29 -71 q0 -35 -23 -60q-26 -28 -65 -30q-12 -2 -56 -4t-92 -5t-89 -3q-22 -1 -41 -1q-59 0 -101 5q-35 4 -61 12q-47 12 -72 43q-18 22 -20 49z" />
<glyph unicode="&#xcc;" horiz-adv-x="718" d="M191.5 2152q11.5 37 44 56.5t69.5 8.5t58 -44q10 -20 26.5 -49t20.5 -37l12 -25q8 -14 11 -19t9.5 -18.5t12.5 -27.5l14 -37q8 -20 23 -56l34 -75q14 -35 0 -71t-49 -51.5t-70.5 -1t-52.5 49.5l-34 82l-25 55l-14 35q-8 20 -9.5 23.5t-9.5 19.5t-12 22.5t-21 36.5l-30 54 q-19 32 -7.5 69zM86 31q10 90 26.5 189t41 222t34.5 189q25 141 70 430l72 438q8 37 39 60q23 17 50 17q9 0 18 -2q38 -7 61 -38q18 -24 17 -53q0 -8 -1 -17q-27 -145 -72 -435t-69 -433l-37 -184q-23 -119 -39 -216.5t-27 -187.5q-4 -37 -33 -61q-25 -21 -57 -21h-11 q-38 4 -63 34q-21 25 -21 58q0 5 1 11z" />
<glyph unicode="&#xce;" horiz-adv-x="718" d="M68.5 1793q-13.5 36 2.5 73q39 90 189 383l118 233l46 78l16 26q6 10 12 17q18 23 51 29q45 10 82 -19q14 -12 25 -29q8 -14 14 -32.5t17 -61.5q29 -123 45 -178q25 -80 83 -244t83 -250q12 -37 -6.5 -70.5t-55.5 -45t-70.5 7t-44.5 55.5q-27 86 -84 249t-81 245l-15 43 l-69 -135q-147 -293 -187 -379q-14 -35 -50 -48.5t-71.5 2t-49 51.5zM86 31q10 90 26.5 189t41 222t34.5 189q25 141 70 430l72 438q8 37 39 60q23 17 50 17q9 0 18 -2q38 -7 61 -38q18 -24 17 -53q0 -8 -1 -17q-27 -145 -72 -435t-69 -433l-37 -184q-23 -119 -39 -216.5 t-27 -187.5q-4 -37 -33 -61q-25 -21 -57 -21h-11q-38 4 -63 34q-21 25 -21 58q0 5 1 11z" />
<glyph unicode="&#xd1;" horiz-adv-x="1708" d="M895.5 1812.5q-10.5 36.5 10.5 69.5q4 10 12 29l18 39q27 59 64 92q57 55 123.5 76.5t133 11.5t116 -27.5t108.5 -46.5l94 -51q53 -29 82 -41q61 -29 82 -20.5t55 32.5q78 57 80 60q33 20 71 13t58.5 -40t13 -71t-39.5 -58l-23 -16q-12 -8 -25.5 -19.5t-23.5 -17.5 q-55 -41 -104 -60q-88 -31 -220 27q-35 16 -94 47l-90 49q-100 49 -159.5 54.5t-110.5 -37.5q-10 -10 -23 -37l-16 -35q-12 -29 -23 -43q-18 -35 -55 -45t-70.5 9.5t-44 56zM172 68q-4 46 -3 93q0 90 12 183q19 143 69.5 303t86.5 257t101 261l41 99q4 10 6 18t5.5 24.5 t9.5 34.5q23 90 84 129q32 18 63 19l55 -14q35 -18 58 -62q25 -43 41 -119q10 -57 22 -170q59 -553 78 -723q4 -39 14 -100q10 25 19.5 53.5t18 59t12.5 43.5q14 51 65 215l76 237l63 205q41 129 80 236l74 211q14 35 49 51q19 9 39 9q16 0 32 -6q36 -13 52 -48q9 -20 9 -41 q0 -15 -5 -31l-76 -209l-77 -233l-66 -203l-72 -236q-49 -158 -67 -211q0 -2 -11.5 -43t-24.5 -81.5t-30 -75.5q-79 -178 -210 -178q-12 0 -25 2q-55 4 -78 63v4l-2 2v2v2q-2 0 -2 2v2v2v7l-4 22l-13 72q-18 115 -24 170q-16 123 -78 727q0 2 -1 9t-2 17.5t-1 22.5l-25 -57 q-63 -158 -100 -257.5t-82 -243.5t-61 -271q-12 -92 -12 -180q0 -12 1 -35t1 -35q0 -35 -23 -62q-25 -29 -64 -30q-3 0 -6 -1q-35 0 -61 23q-29 25 -31 64zM940 141q2 -6 4 -6l-4 12v-6z" />
<glyph unicode="&#xd2;" horiz-adv-x="1525" d="M775.5 2087q11.5 37 44 56.5t69.5 8.5t58 -44q10 -20 26.5 -49t20.5 -37l12 -25q8 -14 11 -19t9.5 -18.5t12.5 -27.5l14 -37q8 -20 23 -56l34 -75q14 -35 0 -71t-49 -51.5t-70.5 -1t-52.5 49.5l-34 82l-25 55l-14 35q-8 20 -9.5 23.5t-9.5 19.5t-12 22.5t-21 36.5l-30 54 q-19 32 -7.5 69zM276 390q-5 43 -4 86q0 46 6 91q11 86 44 178q55 164 158.5 322t203.5 248l29 28l41 41q20 18 52 40t60 34q29 10 60 12q6 8 12 15q27 27 65.5 26.5t65.5 -26.5q6 -6 21 -19h8q3 0 5 1q35 0 61 -25q28 -27 28 -66v-2v-2q35 -35 55 -65q75 -112 75 -284 q0 -100 -26 -220q-57 -262 -182 -451q-119 -176 -244 -256q-103 -63 -204 -62q-94 0 -187 54q-90 53 -141.5 132t-61.5 170zM498 684q-42 -122 -42 -214q0 -153 117 -222q45 -26 91 -26q53 0 108 34q92 57 186 199q109 162 158 387q22 101 22 179q0 115 -46 183 q-23 33 -80 82q-10 0 -19 2q-9 0 -16 1q-30 0 -45 -7q-18 -6 -31.5 -17.5t-40 -39t-53.5 -49.5q-80 -74 -170 -211.5t-139 -280.5z" />
<glyph unicode="&#xd4;" horiz-adv-x="1525" d="M652.5 1730q-13.5 36 2.5 73q39 90 189 383l118 233l46 78l16 26q6 10 12 17q18 23 51 29q45 10 82 -19q14 -12 25 -29q8 -14 14 -32.5t17 -61.5q29 -123 45 -178q25 -80 83 -244t83 -250q12 -37 -6.5 -70.5t-55.5 -45t-70.5 7t-44.5 55.5q-27 86 -84 249t-81 245l-15 43 l-69 -135q-147 -293 -187 -379q-14 -35 -50 -48.5t-71.5 2t-49 51.5zM276 390q-5 43 -4 86q0 46 6 91q11 86 44 178q55 164 158.5 322t203.5 248l29 28l41 41q20 18 52 40t60 34q29 10 60 12q6 8 12 15q27 27 65.5 26.5t65.5 -26.5q6 -6 21 -19h8q3 0 5 1q35 0 61 -25 q28 -27 28 -66v-2v-2q35 -35 55 -65q75 -112 75 -284q0 -100 -26 -220q-57 -262 -182 -451q-119 -176 -244 -256q-103 -63 -204 -62q-94 0 -187 54q-90 53 -141.5 132t-61.5 170zM498 684q-42 -122 -42 -214q0 -153 117 -222q45 -26 91 -26q53 0 108 34q92 57 186 199 q109 162 158 387q22 101 22 179q0 115 -46 183q-23 33 -80 82q-10 0 -19 2q-9 0 -16 1q-30 0 -45 -7q-18 -6 -31.5 -17.5t-40 -39t-53.5 -49.5q-80 -74 -170 -211.5t-139 -280.5z" />
<glyph unicode="&#xd5;" horiz-adv-x="1525" d="M487.5 1704.5q-10.5 36.5 10.5 69.5q4 10 12 29l18 39q27 59 64 92q57 55 123.5 76.5t133 11.5t116 -27.5t108.5 -46.5l94 -51q53 -29 82 -41q61 -29 82 -20.5t55 32.5q78 57 80 60q33 20 71 13t58.5 -40t13 -71t-39.5 -58l-23 -16q-12 -8 -25.5 -19.5t-23.5 -17.5 q-55 -41 -104 -60q-88 -31 -220 27q-35 16 -94 47l-90 49q-100 49 -159.5 54.5t-110.5 -37.5q-10 -10 -23 -37l-16 -35q-12 -29 -23 -43q-18 -35 -55 -45t-70.5 9.5t-44 56zM276 390q-5 43 -4 86q0 46 6 91q11 86 44 178q55 164 158.5 322t203.5 248l29 28l41 41 q20 18 52 40t60 34q29 10 60 12q6 8 12 15q27 27 65.5 26.5t65.5 -26.5q6 -6 21 -19h8q3 0 5 1q35 0 61 -25q28 -27 28 -66v-2v-2q35 -35 55 -65q75 -112 75 -284q0 -100 -26 -220q-57 -262 -182 -451q-119 -176 -244 -256q-103 -63 -204 -62q-94 0 -187 54 q-90 53 -141.5 132t-61.5 170zM498 684q-42 -122 -42 -214q0 -153 117 -222q45 -26 91 -26q53 0 108 34q92 57 186 199q109 162 158 387q22 101 22 179q0 115 -46 183q-23 33 -80 82q-10 0 -19 2q-9 0 -16 1q-30 0 -45 -7q-18 -6 -31.5 -17.5t-40 -39t-53.5 -49.5 q-80 -74 -170 -211.5t-139 -280.5z" />
<glyph unicode="&#xd9;" horiz-adv-x="1474" d="M949.5 2136q11.5 37 44 56.5t69.5 8.5t58 -44q10 -20 26.5 -49t20.5 -37l12 -25q8 -14 11 -19t9.5 -18.5t12.5 -27.5l14 -37q8 -20 23 -56l34 -75q14 -35 0 -71t-49 -51.5t-70.5 -1t-52.5 49.5l-34 82l-25 55l-14 35q-8 20 -9.5 23.5t-9.5 19.5t-12 22.5t-21 36.5l-30 54 q-19 32 -7.5 69zM186 223q-1 11 0 23q0 30 3 67q5 51 12.5 101.5t9.5 62.5q12 160 50 352.5t66.5 306t90.5 339.5q10 37 44 56q22 13 45 13q12 0 25 -4q37 -10 57 -44q13 -22 13 -46q0 -12 -4 -25q-61 -221 -90 -333.5t-64.5 -295t-48.5 -335.5q-2 -29 -14 -107 q-10 -80 -10 -125q2 -49 15 -71.5t42 -32.5q17 -5 33 -5q60 0 125 68q20 25 42.5 58t35.5 51l36 63q27 47 31 54q127 217 206 473t150 598q6 39 39 59q24 15 52 15q9 0 19 -1q38 -7 58 -40q15 -23 15 -49q0 -10 -2 -21q-72 -352 -156 -622.5t-221 -506.5q-4 -8 -23 -40 l-30 -52l-31 -51q-20 -31 -42 -59.5t-42 -50.5q-121 -133 -256 -134q-47 0 -96 17q-179 59 -185 274z" />
<glyph unicode="&#xdb;" horiz-adv-x="1474" d="M826.5 1777q-13.5 36 2.5 73q39 90 189 383l118 233l46 78l16 26q6 10 12 17q18 23 51 29q45 10 82 -19q14 -12 25 -29q8 -14 14 -32.5t17 -61.5q29 -123 45 -178q25 -80 83 -244t83 -250q12 -37 -6.5 -70.5t-55.5 -45t-70.5 7t-44.5 55.5q-27 86 -84 249t-81 245l-15 43 l-69 -135q-147 -293 -187 -379q-14 -35 -50 -48.5t-71.5 2t-49 51.5zM186 223q-1 11 0 23q0 30 3 67q5 51 12.5 101.5t9.5 62.5q12 160 50 352.5t66.5 306t90.5 339.5q10 37 44 56q22 13 45 13q12 0 25 -4q37 -10 57 -44q13 -22 13 -46q0 -12 -4 -25q-61 -221 -90 -333.5 t-64.5 -295t-48.5 -335.5q-2 -29 -14 -107q-10 -80 -10 -125q2 -49 15 -71.5t42 -32.5q17 -5 33 -5q60 0 125 68q20 25 42.5 58t35.5 51l36 63q27 47 31 54q127 217 206 473t150 598q6 39 39 59q24 15 52 15q9 0 19 -1q38 -7 58 -40q15 -23 15 -49q0 -10 -2 -21 q-72 -352 -156 -622.5t-221 -506.5q-4 -8 -23 -40l-30 -52l-31 -51q-20 -31 -42 -59.5t-42 -50.5q-121 -133 -256 -134q-47 0 -96 17q-179 59 -185 274z" />
<glyph unicode="&#xe0;" d="M410.5 1530q11.5 37 44 56.5t69.5 8.5t58 -44q10 -20 26.5 -49t20.5 -37l12 -25q8 -14 11 -19t9.5 -18.5t12.5 -27.5l14 -37q8 -20 23 -56l34 -75q14 -35 0 -71t-49 -51.5t-70.5 -1t-52.5 49.5l-34 82l-25 55l-14 35q-8 20 -9.5 23.5t-9.5 19.5t-12 22.5t-21 36.5l-30 54 q-19 32 -7.5 69zM-6 76q-8 31 -8 67q0 41 10 90q25 123 84 238q33 66 79 133.5t108.5 142t143.5 129t164 70.5q28 6 63 7q21 0 44 -3q4 -2 30.5 -5t41.5 -5q39 -2 64 -31q24 -27 24 -60.5t-19 -55.5q2 -4 2 -9q7 -21 7 -58q0 -9 -1 -19q-2 -154 -2 -179q4 -49 16.5 -109.5 t22 -95t36 -117.5t34.5 -112q5 -15 5 -29q0 -21 -11 -41q-18 -34 -55 -46q-14 -4 -28 -4q-22 0 -43 12q-34 18 -44 55l-27 82l-30 94q-10 35 -24.5 88t-23.5 98q-66 -106 -137 -196q-92 -115 -170 -178q-103 -81 -191 -82q-12 0 -24 2q-57 8 -93 43t-48 84zM160 133l6 2 q-4 0 -6 -2zM172 137q27 8 61 37q63 49 140 148q68 84 125 176t80 141q0 2 12 68q6 33 14 57q-94 -25 -193.5 -136.5t-166.5 -242.5q-45 -90 -66 -188q-6 -35 -6 -60z" />
<glyph unicode="&#xe2;" d="M288.5 1171q-13.5 36 2.5 73q39 90 189 383l118 233l46 78l16 26q6 10 12 17q18 23 51 29q45 10 82 -19q14 -12 25 -29q8 -14 14 -32.5t17 -61.5q29 -123 45 -178q25 -80 83 -244t83 -250q12 -37 -6.5 -70.5t-55.5 -45t-70.5 7t-44.5 55.5q-27 86 -84 249t-81 245l-15 43 l-69 -135q-147 -293 -187 -379q-14 -35 -50 -48.5t-71.5 2t-49 51.5zM-6 76q-8 31 -8 67q0 41 10 90q25 123 84 238q33 66 79 133.5t108.5 142t143.5 129t164 70.5q28 6 63 7q21 0 44 -3q4 -2 30.5 -5t41.5 -5q39 -2 64 -31q24 -27 24 -60.5t-19 -55.5q2 -4 2 -9 q7 -21 7 -58q0 -9 -1 -19q-2 -154 -2 -179q4 -49 16.5 -109.5t22 -95t36 -117.5t34.5 -112q5 -15 5 -29q0 -21 -11 -41q-18 -34 -55 -46q-14 -4 -28 -4q-22 0 -43 12q-34 18 -44 55l-27 82l-30 94q-10 35 -24.5 88t-23.5 98q-66 -106 -137 -196q-92 -115 -170 -178 q-103 -81 -191 -82q-12 0 -24 2q-57 8 -93 43t-48 84zM160 133l6 2q-4 0 -6 -2zM172 137q27 8 61 37q63 49 140 148q68 84 125 176t80 141q0 2 12 68q6 33 14 57q-94 -25 -193.5 -136.5t-166.5 -242.5q-45 -90 -66 -188q-6 -35 -6 -60z" />
<glyph unicode="&#xe3;" d="M120.5 1144.5q-10.5 36.5 10.5 69.5q4 10 12 29l18 39q27 59 64 92q57 55 123.5 76.5t133 11.5t116 -27.5t108.5 -46.5l94 -51q53 -29 82 -41q61 -29 82 -20.5t55 32.5q78 57 80 60q33 20 71 13t58.5 -40t13 -71t-39.5 -58l-23 -16q-12 -8 -25.5 -19.5t-23.5 -17.5 q-55 -41 -104 -60q-88 -31 -220 27q-35 16 -94 47l-90 49q-100 49 -159.5 54.5t-110.5 -37.5q-10 -10 -23 -37l-16 -35q-12 -29 -23 -43q-18 -35 -55 -45t-70.5 9.5t-44 56zM-6 76q-8 31 -8 67q0 41 10 90q25 123 84 238q33 66 79 133.5t108.5 142t143.5 129t164 70.5 q28 6 63 7q21 0 44 -3q4 -2 30.5 -5t41.5 -5q39 -2 64 -31q24 -27 24 -60.5t-19 -55.5q2 -4 2 -9q7 -21 7 -58q0 -9 -1 -19q-2 -154 -2 -179q4 -49 16.5 -109.5t22 -95t36 -117.5t34.5 -112q5 -15 5 -29q0 -21 -11 -41q-18 -34 -55 -46q-14 -4 -28 -4q-22 0 -43 12 q-34 18 -44 55l-27 82l-30 94q-10 35 -24.5 88t-23.5 98q-66 -106 -137 -196q-92 -115 -170 -178q-103 -81 -191 -82q-12 0 -24 2q-57 8 -93 43t-48 84zM160 133l6 2q-4 0 -6 -2zM172 137q27 8 61 37q63 49 140 148q68 84 125 176t80 141q0 2 12 68q6 33 14 57 q-94 -25 -193.5 -136.5t-166.5 -242.5q-45 -90 -66 -188q-6 -35 -6 -60z" />
<glyph unicode="&#xe8;" horiz-adv-x="1021" d="M279.5 1614q11.5 37 44 56.5t69.5 8.5t58 -44q10 -20 26.5 -49t20.5 -37l12 -25q8 -14 11 -19t9.5 -18.5t12.5 -27.5l14 -37q8 -20 23 -56l34 -75q14 -35 0 -71t-49 -51.5t-70.5 -1t-52.5 49.5l-34 82l-25 55l-14 35q-8 20 -9.5 23.5t-9.5 19.5t-12 22.5t-21 36.5l-30 54 q-19 32 -7.5 69zM25 246.5q0 25.5 2 57.5t2 34q0 272 151 473q20 29 72.5 81t107.5 89q80 56 147 56q9 0 17 -1q63 -6 97 -53t43 -110q1 -10 1 -20q0 -55 -36 -126q-31 -59 -84 -129q-106 -137 -191 -195q-41 -27 -141 -73q0 -25 -1 -49.5t-2 -36t1 -22.5t6 -19 q44 -92 150 -93q16 0 34 3q119 12 277 102q23 14 47 14q12 0 25 -4q37 -10 56 -44q13 -22 13 -45q0 -12 -4 -25q-10 -37 -43 -56q-195 -111 -350 -127q-28 -4 -56 -3q-84 0 -159 33q-100 44 -158 163q-12 27 -18 63.5t-6 62zM252 559q61 41 145 152q43 55 66 100q6 12 10 23 l-8 -7q-41 -27 -83 -68.5t-54 -58.5q-47 -63 -76 -141z" />
<glyph unicode="&#xea;" horiz-adv-x="1021" d="M156.5 1255q-13.5 36 2.5 73q39 90 189 383l118 233l46 78l16 26q6 10 12 17q18 23 51 29q45 10 82 -19q14 -12 25 -29q8 -14 14 -32.5t17 -61.5q29 -123 45 -178q25 -80 83 -244t83 -250q12 -37 -6.5 -70.5t-55.5 -45t-70.5 7t-44.5 55.5q-27 86 -84 249t-81 245l-15 43 l-69 -135q-147 -293 -187 -379q-14 -35 -50 -48.5t-71.5 2t-49 51.5zM25 246.5q0 25.5 2 57.5t2 34q0 272 151 473q20 29 72.5 81t107.5 89q80 56 147 56q9 0 17 -1q63 -6 97 -53t43 -110q1 -10 1 -20q0 -55 -36 -126q-31 -59 -84 -129q-106 -137 -191 -195 q-41 -27 -141 -73q0 -25 -1 -49.5t-2 -36t1 -22.5t6 -19q44 -92 150 -93q16 0 34 3q119 12 277 102q23 14 47 14q12 0 25 -4q37 -10 56 -44q13 -22 13 -45q0 -12 -4 -25q-10 -37 -43 -56q-195 -111 -350 -127q-28 -4 -56 -3q-84 0 -159 33q-100 44 -158 163q-12 27 -18 63.5 t-6 62zM252 559q61 41 145 152q43 55 66 100q6 12 10 23l-8 -7q-41 -27 -83 -68.5t-54 -58.5q-47 -63 -76 -141z" />
<glyph unicode="&#xec;" horiz-adv-x="894" d="M369.5 1884q11.5 37 44 56.5t69.5 8.5t58 -44q10 -20 26.5 -49t20.5 -37l12 -25q8 -14 11 -19t9.5 -18.5t12.5 -27.5l14 -37q8 -20 23 -56l34 -75q14 -35 0 -71t-49 -51.5t-70.5 -1t-52.5 49.5l-34 82l-25 55l-14 35q-8 20 -9.5 23.5t-9.5 19.5t-12 22.5t-21 36.5l-30 54 q-19 32 -7.5 69zM172 51l29 139q23 102 40 175t38 137q23 78 79 227q59 158 78 213q10 37 44 55q21 11 43 12q14 0 28 -4q37 -11 55 -46q11 -20 11 -41q0 -14 -5 -29q-20 -76 -80 -227q-55 -143 -77 -213q-18 -66 -36 -135.5t-37.5 -166t-29.5 -137.5q-8 -37 -41 -57 q-23 -15 -49 -15q-10 0 -20 3q-37 8 -58 41q-15 23 -14 48q0 10 2 21zM506 1216.5q0 38.5 26.5 65.5t65.5 27t65.5 -27t26.5 -65.5t-26.5 -65.5t-65.5 -27t-65.5 27t-26.5 65.5z" />
<glyph unicode="&#xee;" horiz-adv-x="894" d="M247.5 1527q-13.5 36 2.5 73q39 90 189 383l118 233l46 78l16 26q6 10 12 17q18 23 51 29q45 10 82 -19q14 -12 25 -29q8 -14 14 -32.5t17 -61.5q29 -123 45 -178q25 -80 83 -244t83 -250q12 -37 -6.5 -70.5t-55.5 -45t-70.5 7t-44.5 55.5q-27 86 -84 249t-81 245l-15 43 l-69 -135q-147 -293 -187 -379q-14 -35 -50 -48.5t-71.5 2t-49 51.5zM172 51l29 139q23 102 40 175t38 137q23 78 79 227q59 158 78 213q10 37 44 55q21 11 43 12q14 0 28 -4q37 -11 55 -46q11 -20 11 -41q0 -14 -5 -29q-20 -76 -80 -227q-55 -143 -77 -213 q-18 -66 -36 -135.5t-37.5 -166t-29.5 -137.5q-8 -37 -41 -57q-23 -15 -49 -15q-10 0 -20 3q-37 8 -58 41q-15 23 -14 48q0 10 2 21zM506 1216.5q0 38.5 26.5 65.5t65.5 27t65.5 -27t26.5 -65.5t-26.5 -65.5t-65.5 -27t-65.5 27t-26.5 65.5z" />
<glyph unicode="&#xf1;" horiz-adv-x="1067" d="M0.5 1196.5q-10.5 36.5 10.5 69.5q4 10 12 29l18 39q27 59 64 92q57 55 123.5 76.5t133 11.5t116 -27.5t108.5 -46.5l94 -51q53 -29 82 -41q61 -29 82 -20.5t55 32.5q78 57 80 60q33 20 71 13t58.5 -40t13 -71t-39.5 -58l-23 -16q-12 -8 -25.5 -19.5t-23.5 -17.5 q-55 -41 -104 -60q-88 -31 -220 27q-35 16 -94 47l-90 49q-100 49 -159.5 54.5t-110.5 -37.5q-10 -10 -23 -37l-16 -35q-12 -29 -23 -43q-18 -35 -55 -45t-70.5 9.5t-44 56zM-31 29l19 168q14 131 25.5 218t25.5 167q8 43 27 110q20 74 26 99q0 6 14 92q4 35 9 49 q4 12 10 22q12 20 31 35q26 16 51 16q27 0 53 -18q23 -16 33 -41q4 -8 6 -16t2 -19q2 -18 2 -41q0 -46 -8 -108q76 74 162 117q4 0 8 4q107 52 187 52q24 0 46 -5q70 -12 103 -90q8 -16 14 -39q0 -2 3 -11.5t3 -13.5q43 -136 43 -285q0 -242 -112 -520q-14 -35 -51 -50 q-19 -8 -36 -8t-34 7q-35 14 -50 50q-8 19 -8 37q0 17 7 34q99 245 98 452q0 120 -33 226q-2 2 -8 29q-29 -4 -98 -37q-117 -55 -203 -195q-84 -137 -121 -301q-2 -10 -12 -82q-10 -63 -27 -106q-4 -12 -12 -23q-6 -8 -14 -14q-10 -31 -38 -49.5t-61 -14.5q-39 4 -62 35 q-20 26 -20 57q-1 6 0 11z" />
<glyph unicode="&#xf2;" horiz-adv-x="888" d="M136.5 1495q11.5 37 44 56.5t69.5 8.5t58 -44q10 -20 26.5 -49t20.5 -37l12 -25q8 -14 11 -19t9.5 -18.5t12.5 -27.5l14 -37q8 -20 23 -56l34 -75q14 -35 0 -71t-49 -51.5t-70.5 -1t-52.5 49.5l-34 82l-25 55l-14 35q-8 20 -9.5 23.5t-9.5 19.5t-12 22.5t-21 36.5l-30 54 q-19 32 -7.5 69zM-55 193q-5 34 -5 69q0 95 31 205q41 139 117 252q88 129 186 166q14 6 29 8q27 25 60 25q11 0 22 -3q10 0 29 -2l41 -4q72 -6 116 -39q113 -80 113 -261v-19q-4 -156 -78 -322q-80 -176 -196 -264q-93 -70 -188 -70q-65 0 -130 33q-124 64 -147 226z M129 219q8 -68 49 -88q20 -10 41 -10q37 0 78 31q80 61 139 192q64 140 64 260q0 84 -33 113q-25 -21 -57 -21h-11q-4 0 -61 13h-4q-43 -20 -92 -93q-59 -90 -92 -200q-24 -83 -24 -150q0 -25 3 -47z" />
<glyph unicode="&#xf4;" horiz-adv-x="888" d="M13.5 1136q-13.5 36 2.5 73q39 90 189 383l118 233l46 78l16 26q6 10 12 17q18 23 51 29q45 10 82 -19q14 -12 25 -29q8 -14 14 -32.5t17 -61.5q29 -123 45 -178q25 -80 83 -244t83 -250q12 -37 -6.5 -70.5t-55.5 -45t-70.5 7t-44.5 55.5q-27 86 -84 249t-81 245l-15 43 l-69 -135q-147 -293 -187 -379q-14 -35 -50 -48.5t-71.5 2t-49 51.5zM-55 193q-5 34 -5 69q0 95 31 205q41 139 117 252q88 129 186 166q14 6 29 8q27 25 60 25q11 0 22 -3q10 0 29 -2l41 -4q72 -6 116 -39q113 -80 113 -261v-19q-4 -156 -78 -322q-80 -176 -196 -264 q-93 -70 -188 -70q-65 0 -130 33q-124 64 -147 226zM129 219q8 -68 49 -88q20 -10 41 -10q37 0 78 31q80 61 139 192q64 140 64 260q0 84 -33 113q-25 -21 -57 -21h-11q-4 0 -61 13h-4q-43 -20 -92 -93q-59 -90 -92 -200q-24 -83 -24 -150q0 -25 3 -47z" />
<glyph unicode="&#xf5;" horiz-adv-x="888" d="M-153.5 1110.5q-10.5 36.5 10.5 69.5q4 10 12 29l18 39q27 59 64 92q57 55 123.5 76.5t133 11.5t116 -27.5t108.5 -46.5l94 -51q53 -29 82 -41q61 -29 82 -20.5t55 32.5q78 57 80 60q33 20 71 13t58.5 -40t13 -71t-39.5 -58l-23 -16q-12 -8 -25.5 -19.5t-23.5 -17.5 q-55 -41 -104 -60q-88 -31 -220 27q-35 16 -94 47l-90 49q-100 49 -159.5 54.5t-110.5 -37.5q-10 -10 -23 -37l-16 -35q-12 -29 -23 -43q-18 -35 -55 -45t-70.5 9.5t-44 56zM-55 193q-5 34 -5 69q0 95 31 205q41 139 117 252q88 129 186 166q14 6 29 8q27 25 60 25 q11 0 22 -3q10 0 29 -2l41 -4q72 -6 116 -39q113 -80 113 -261v-19q-4 -156 -78 -322q-80 -176 -196 -264q-93 -70 -188 -70q-65 0 -130 33q-124 64 -147 226zM129 219q8 -68 49 -88q20 -10 41 -10q37 0 78 31q80 61 139 192q64 140 64 260q0 84 -33 113q-25 -21 -57 -21 h-11q-4 0 -61 13h-4q-43 -20 -92 -93q-59 -90 -92 -200q-24 -83 -24 -150q0 -25 3 -47z" />
<glyph unicode="&#xf9;" horiz-adv-x="1175" d="M150.5 1646q11.5 37 44 56.5t69.5 8.5t58 -44q10 -20 26.5 -49t20.5 -37l12 -25q8 -14 11 -19t9.5 -18.5t12.5 -27.5l14 -37q8 -20 23 -56l34 -75q14 -35 0 -71t-49 -51.5t-70.5 -1t-52.5 49.5l-34 82l-25 55l-14 35q-8 20 -9.5 23.5t-9.5 19.5t-12 22.5t-21 36.5l-30 54 q-19 32 -7.5 69zM96 195q-1 20 -1 42q0 111 34 267q61 279 166 510q14 37 50 50q17 6 33 6l39 -8q36 -15 49 -51q6 -16 6 -32q0 -20 -9 -39q-96 -217 -152 -475q-30 -136 -29 -227q0 -16 1 -31q4 -80 30 -94q24 -13 49 -13l87 39q80 72 157 252q88 197 182 592q8 37 41 56 q23 14 49 14q11 0 22 -2q38 -8 57 -41q14 -23 14 -49q0 -11 -2 -23q-98 -408 -192.5 -623t-203.5 -313q-100 -90 -206 -90q-68 0 -140 37q-119 62 -131 246z" />
<glyph unicode="&#xfb;" horiz-adv-x="1175" d="M27.5 1287q-13.5 36 2.5 73q39 90 189 383l118 233l46 78l16 26q6 10 12 17q18 23 51 29q45 10 82 -19q14 -12 25 -29q8 -14 14 -32.5t17 -61.5q29 -123 45 -178q25 -80 83 -244t83 -250q12 -37 -6.5 -70.5t-55.5 -45t-70.5 7t-44.5 55.5q-27 86 -84 249t-81 245l-15 43 l-69 -135q-147 -293 -187 -379q-14 -35 -50 -48.5t-71.5 2t-49 51.5zM96 195q-1 20 -1 42q0 111 34 267q61 279 166 510q14 37 50 50q17 6 33 6l39 -8q36 -15 49 -51q6 -16 6 -32q0 -20 -9 -39q-96 -217 -152 -475q-30 -136 -29 -227q0 -16 1 -31q4 -80 30 -94 q24 -13 49 -13l87 39q80 72 157 252q88 197 182 592q8 37 41 56q23 14 49 14q11 0 22 -2q38 -8 57 -41q14 -23 14 -49q0 -11 -2 -23q-98 -408 -192.5 -623t-203.5 -313q-100 -90 -206 -90q-68 0 -140 37q-119 62 -131 246z" />
<glyph unicode="&#x152;" horiz-adv-x="2797" d="M1641 49q-1 5 -1 9.5t1 9.5q0 6 2 12q0 4 2 6v4l2 2v4l4 8l12 33l39 99q59 152 78 206q14 43 149 519q92 326 177 526q6 12 14 22q8 31 34 51q23 18 52 17h6q135 -2 289 -2q39 0 65.5 -26.5t26.5 -65.5t-26.5 -65.5t-65.5 -26.5h-234q-76 -184 -159 -482l-25 -86l131 19 q6 1 11 0q30 0 57 -19q31 -23 36 -60v-14q0 -30 -18 -55q-23 -31 -61 -37l-211 -28q-35 -129 -72 -244q-20 -63 -80 -217l-16 -41q15 -1 33 -1t39 1q41 0 88 2t90 5t55 3h6q35 0 61 -23q30 -28 29 -71q0 -35 -23 -60q-26 -28 -65 -30q-12 -2 -56 -4t-92 -5t-89 -3 q-22 -1 -41 -1q-59 0 -101 5q-35 4 -61 12q-47 12 -72 43q-18 22 -20 49zM276 390q-5 43 -4 86q0 46 6 91q11 86 44 178q55 164 158.5 322t203.5 248l29 28l41 41q20 18 52 40t60 34q29 10 60 12q6 8 12 15q27 27 65.5 26.5t65.5 -26.5q6 -6 21 -19h8q3 0 5 1q35 0 61 -25 q28 -27 28 -66v-2v-2q35 -35 55 -65q75 -112 75 -284q0 -100 -26 -220q-57 -262 -182 -451q-119 -176 -244 -256q-103 -63 -204 -62q-94 0 -187 54q-90 53 -141.5 132t-61.5 170zM498 684q-42 -122 -42 -214q0 -153 117 -222q45 -26 91 -26q53 0 108 34q92 57 186 199 q109 162 158 387q22 101 22 179q0 115 -46 183q-23 33 -80 82q-10 0 -19 2q-9 0 -16 1q-30 0 -45 -7q-18 -6 -31.5 -17.5t-40 -39t-53.5 -49.5q-80 -74 -170 -211.5t-139 -280.5z" />
<glyph unicode="&#x153;" horiz-adv-x="1910" d="M914 246.5q0 25.5 2 57.5t2 34q0 272 151 473q20 29 72.5 81t107.5 89q80 56 147 56q9 0 17 -1q63 -6 97 -53t43 -110q1 -10 1 -20q0 -55 -36 -126q-31 -59 -84 -129q-106 -137 -191 -195q-41 -27 -141 -73q0 -25 -1 -49.5t-2 -36t1 -22.5t6 -19q44 -92 150 -93 q16 0 34 3q119 12 277 102q23 14 47 14q12 0 25 -4q37 -10 56 -44q13 -22 13 -45q0 -12 -4 -25q-10 -37 -43 -56q-195 -111 -350 -127q-28 -4 -56 -3q-84 0 -159 33q-100 44 -158 163q-12 27 -18 63.5t-6 62zM1141 559q61 41 145 152q43 55 66 100q6 12 10 23l-8 -7 q-41 -27 -83 -68.5t-54 -58.5q-47 -63 -76 -141zM-55 193q-5 34 -5 69q0 95 31 205q41 139 117 252q88 129 186 166q14 6 29 8q27 25 60 25q11 0 22 -3q10 0 29 -2l41 -4q72 -6 116 -39q113 -80 113 -261v-19q-4 -156 -78 -322q-80 -176 -196 -264q-93 -70 -188 -70 q-65 0 -130 33q-124 64 -147 226zM129 219q8 -68 49 -88q20 -10 41 -10q37 0 78 31q80 61 139 192q64 140 64 260q0 84 -33 113q-25 -21 -57 -21h-11q-4 0 -61 13h-4q-43 -20 -92 -93q-59 -90 -92 -200q-24 -83 -24 -150q0 -25 3 -47z" />
<glyph unicode="&#x2c6;" horiz-adv-x="1044" d="M52.5 591q-13.5 36 2.5 73q39 90 189 383l118 233l46 78l16 26q6 10 12 17q18 23 51 29q45 10 82 -19q14 -12 25 -29q8 -14 14 -32.5t17 -61.5q29 -123 45 -178q25 -80 83 -244t83 -250q12 -37 -6.5 -70.5t-55.5 -45t-70.5 7t-44.5 55.5q-27 86 -84 249t-81 245l-15 43 l-69 -135q-147 -293 -187 -379q-14 -35 -50 -48.5t-71.5 2t-49 51.5z" />
<glyph unicode="&#x2dc;" horiz-adv-x="614" d="M-515.5 192.5q-10.5 36.5 10.5 69.5q4 10 12 29l18 39q27 59 64 92q57 55 123.5 76.5t133 11.5t116 -27.5t108.5 -46.5l94 -51q53 -29 82 -41q61 -29 82 -20.5t55 32.5q78 57 80 60q33 20 71 13t58.5 -40t13 -71t-39.5 -58l-23 -16q-12 -8 -25.5 -19.5t-23.5 -17.5 q-55 -41 -104 -60q-88 -31 -220 27q-35 16 -94 47l-90 49q-100 49 -159.5 54.5t-110.5 -37.5q-10 -10 -23 -37l-16 -35q-12 -29 -23 -43q-18 -35 -55 -45t-70.5 9.5t-44 56z" />
<glyph unicode="&#x2013;" horiz-adv-x="1345" d="M-62 524.5q1 65.5 47 110.5t111 43q483 -4 883 12q63 4 111.5 -40t51.5 -108.5t-41 -112.5t-110 -50q-406 -18 -899 -12q-66 0 -110.5 46t-43.5 111.5z" />
<glyph unicode="&#x2014;" horiz-adv-x="2244" d="M-164 532.5q0 65.5 45 110.5t111 45q315 0 946 -8t946 -8q66 0 111 -45t45 -110.5t-45 -111t-111 -45.5q-315 0 -946 8.5t-946 8.5q-66 0 -111 45t-45 110.5z" />
<glyph unicode="&#x2018;" horiz-adv-x="778" d="M76 1049q4 47 21.5 93t36 79.5t54.5 72.5l58 62q20 20 68 57t59 45l55 37q33 23 71 15.5t59.5 -39t14 -69.5t-37.5 -59q-113 -78 -254 -280q25 -27 24.5 -62.5t-22.5 -64.5q-27 -27 -64 -29t-65 21q-4 2 -19 10q-65 41 -59 111z" />
<glyph unicode="&#x2019;" horiz-adv-x="632" d="M76 865q-8 38 10 71l61 94q37 57 58 98q33 63 39 132q-39 12 -60 22q-33 18 -44 55t7.5 71t55.5 45t71 -7q2 -2 5.5 -3t12.5 -3t25 -8q78 -27 99 -93q41 -125 -45 -295q-25 -49 -68 -114l-57 -92q-20 -33 -58 -41.5t-71 11t-41 57.5z" />
<glyph unicode="&#x201a;" horiz-adv-x="700" d="M4 175.5q-6 64.5 35 114.5t104 56q14 2 27 0q12 2 25 2q66 0 110 -45q29 -29 39 -65q37 -33 59 -58q82 -88 93 -180q12 -104 -64 -205q-47 -61 -147 -147q-51 -43 -116 -38t-107 55t-37 114q6 66 55 106q66 55 92 86q-29 31 -111 99q-51 41 -57 105.5z" />
<glyph unicode="&#x201c;" horiz-adv-x="1021" d="M57 1137q20 104 142 235l57 58l63 57q33 31 48 45q27 27 65.5 25.5t65 -29t25.5 -66.5t-29 -65l-64 -58l-96 -94q-37 -41 -62 -76q49 -41 29 -102q-12 -35 -46 -52.5t-69 -6.5q0 2 -2 2l-24 2q-33 4 -54 18q-61 37 -49 107zM391 1004q-23 68 19 167q27 63 79 150 q53 82 162 225q23 29 62 34t68.5 -17.5t34.5 -61.5t-17 -69q-102 -135 -152 -211l-18 -29q41 -23 47 -68q0 -4 2 -7t6 -13t10 -31q35 -102 -39 -158q-66 -51 -157 -14q-82 31 -107 103z" />
<glyph unicode="&#x201d;" horiz-adv-x="1073" d="M0 900q-4 38 20 69q92 113 143.5 202t65.5 187q6 39 37 62.5t69 17.5t61.5 -37t17.5 -68q-18 -135 -83 -245.5t-167 -237.5q-25 -29 -63 -33t-67.5 20.5t-33.5 62.5zM421 886q3 38 32 62q18 16 56 46t54.5 48.5t47 75t51.5 113.5q-27 10 -44.5 33.5t-15.5 54.5l-2 8 q-8 35 -8 37q-6 37 0 63q10 39 39 60q33 25 71 20q68 -4 110 -43t52 -98q14 -74 -20 -180q-27 -76 -69 -153t-68 -109q-18 -23 -44 -45.5t-54.5 -44t-33.5 -25.5q-31 -27 -68.5 -24t-63 33t-22.5 68z" />
<glyph unicode="&#x201e;" horiz-adv-x="1081" d="M-67.5 -231.5q-8.5 63.5 30.5 116.5q53 68 127 152l6 8l-37 166q-12 63 24 117.5t99 66.5q43 8 82 -6q43 -8 76 -41q45 -45 45 -110q0 -18 -4 -35l22 -92q20 -94 3 -158l-5 -10l52 59q-23 39 -23 84q0 20 4 41q10 43 37 94q29 57 63.5 94t77.5 54q18 6 37 8 q72 20 133 -21q47 -31 62 -86q43 -70 33 -153q-10 -82 -72 -176q-25 -37 -64 -82l-77 -92l-54 -62q-43 -49 -107.5 -55t-113.5 35q-35 31 -48 73.5t-3 85.5l-12 -14q-68 -76 -113 -137q-41 -51 -104.5 -59.5t-115.5 31.5t-60.5 103.5z" />
<glyph unicode="&#x2022;" horiz-adv-x="710" d="M31 752q18 115 143 184q18 12 33.5 20.5t22 10.5t12.5 5t10 9q51 39 115.5 32t105.5 -57q33 -41 34 -94t-30 -94v-16v-2q0 -2 1 -2t1 -4.5t2 -10.5t3 -18.5t3 -28.5q6 -57 -6 -102q-29 -102 -129 -131q-76 -23 -139 4.5t-104 68.5q-98 103 -78 226z" />
<glyph unicode="&#x2026;" horiz-adv-x="2039" d="M188 90.5q0 65.5 45.5 110.5t111 45t110.5 -45t45 -110.5t-45 -111t-110.5 -45.5t-111 45.5t-45.5 111zM897 106.5q0 65.5 45 110.5t110.5 45t110.5 -45t45 -110.5t-45 -110.5t-110.5 -45t-110.5 45t-45 110.5zM1524 112.5q0 65.5 45 110.5t110.5 45t110.5 -45t45 -110.5 t-45 -110.5t-110.5 -45t-110.5 45t-45 110.5z" />
<glyph unicode="&#x2039;" horiz-adv-x="892" d="M-29 483q6 117 119 209l41 33l25 16l12 13l57 73q29 37 41 56l51 75l56 82q35 55 98.5 67.5t117.5 -23t66.5 -99t-24.5 -117.5q-14 -25 -43 -67l-43 -64l-37 -55l-49 -64q-23 -31 -53 -65q-31 -37 -101 -90q37 -51 113 -131q51 -57 135 -142l96 -98q43 -47 40 -111.5 t-51 -108.5t-112.5 -41t-109.5 52l-94 97q-82 82 -134 139q-88 94 -135 160q-35 45 -53 81q-33 66 -29 123z" />
<glyph unicode="&#x203a;" horiz-adv-x="856" d="M-90 -85q-6 65 35 116l225 258q88 104 135 168l12 14q-37 39 -96 92q-127 113 -209 168q-53 37 -66.5 99.5t22.5 116.5t98.5 67.5t117.5 -21.5q102 -68 246 -196q84 -76 135 -135q33 -39 53 -74q35 -61 33 -123q-2 -51 -41 -117q-18 -31 -53 -78l-147 -182l-224 -258 q-41 -49 -105.5 -55t-114.5 34.5t-56 105.5z" />
<glyph unicode="&#x2044;" horiz-adv-x="966" d="M-440 7.5q-6 64.5 34 115.5q500 604 875 1298q31 57 92.5 76t118.5 -12t75.5 -92.5t-12.5 -118.5q-389 -721 -907 -1352q-41 -49 -105.5 -55t-114.5 35t-56 105.5z" />
<glyph unicode="&#x2122;" horiz-adv-x="2048" d="M165 1344.5q-1 64.5 45 110.5t109 46q41 2 82 2h64h35q23 6 45 4q16 0 30 -4q207 -6 226 -6q63 0 108 -47t43 -113q0 -25 -8 -47q45 27 100 25q147 -6 230 -119q37 -49 59 -119l31 92q29 84 49 127q43 98 107 134q88 49 174 0q49 -29 82 -87q33 -61 59 -184q6 -31 8 -73 t0 -72l-4 -64q-2 -33 -2 -39q0 -2 -6 -239q-2 -66 -48 -110t-111.5 -42t-109.5 48t-42 112v51q-31 -49 -68 -78q-49 -41 -108.5 -49t-131.5 25q-10 4 -18 10l-2 -25q-4 -63 -52 -106t-112.5 -39t-107.5 52t-39 114q2 35 6 98.5t5 76.5t2 74.5t-1 94.5l-4 16q-2 4 -9.5 26.5 t-9.5 35.5q-16 61 -8 110q2 18 10 37q-37 -20 -79 -18q-57 0 -109 2q-18 -414 -25 -512q-4 -66 -52 -108t-113.5 -37.5t-107.5 52.5t-38 113q6 106 25 494h-49q-66 -2 -112 44t-47 110.5z" />
<glyph unicode="&#xe000;" horiz-adv-x="1065" d="M0 1065h1065v-1065h-1065v1065z" />
<glyph unicode="&#xfb01;" horiz-adv-x="1351" d="M-90 822.5q2 64.5 49 108.5t113 42q49 -2 98 -2q41 145 96 235q117 190 260 269q96 59 217 50t230 -95q57 -43 102 -125l27 -50l18 -30q37 -55 25 -119t-66.5 -99.5t-118 -23.5t-98.5 66q-16 27 -35 57l-22 43q-16 29 -25 35q-35 27 -60.5 28.5t-43.5 -12.5 q-70 -37 -144 -158q-16 -27 -30 -63q61 4 123 10q6 0 10 1t8 3t18.5 6.5t38.5 10.5q137 33 226 -49q37 -35 51 -91q6 -20 10 -51q4 -37 6 -108q4 -111 -2 -281q0 -33 -16 -428q-2 -66 -50 -110t-112.5 -40.5t-109 51.5t-39.5 111q16 393 16 424q4 152 2 244q-16 -2 -29 -4 q-119 -10 -233 -16q-16 -106 -35 -271q-18 -174 -37 -426q-18 -266 -26 -342q-6 -63 -56.5 -104t-115 -35t-105.5 56t-35 116q8 76 27.5 342t36.5 426q14 131 30 235q-23 0 -45 3q-63 2 -107 49t-42 111.5z" />
<glyph unicode="&#xfb02;" horiz-adv-x="1335" d="M-123 909.5q14 63.5 68.5 97t117.5 19.5l31 -6q8 39 15 74q53 242 151 333q68 61 182 82q25 4 45.5 6.5t32.5 4.5l21 4q61 18 116 -13q8 18 21 35q51 74 133 82q111 12 180 -65q51 -59 53 -150q2 -86 -43 -215q-31 -88 -77 -184q-41 -82 -64 -113q-18 -205 -24 -371 q-6 -193 10 -303l2 -8q43 27 70 37q61 25 120.5 -2t83 -87.5t-3 -119.5t-86.5 -82q-8 -4 -14 -8l-23 -14q-18 -12 -43 -27q-129 -76 -239 -31q-90 35 -138 144q-27 61 -38 153q-20 137 -13 359q0 61 6 131q-55 -12 -114 -17h-49v-10q-10 -129 -15.5 -275.5t-8.5 -267 t-5 -157.5q-2 -63 -50 -107.5t-112.5 -41.5t-108.5 51.5t-40 113.5q2 35 4 159t8 272.5t16 275.5l2 39l-63 16q-63 14 -97 68.5t-20 118zM403 969q86 4 158 67l8 82q4 41 13 96q-16 -4 -36 -7t-34 -4t-16 -3q-16 -2 -25 -4q-29 -41 -55 -166q-7 -28 -13 -61z" />
<glyph unicode="&#xfb03;" horiz-adv-x="3209" d="M2486 51l29 139q23 102 40 175t38 137q23 78 79 227q59 158 78 213q10 37 44 55q21 11 43 12q14 0 28 -4q37 -11 55 -46q11 -20 11 -41q0 -14 -5 -29q-20 -76 -80 -227q-55 -143 -77 -213q-18 -66 -36 -135.5t-37.5 -166t-29.5 -137.5q-8 -37 -41 -57q-23 -15 -49 -15 q-10 0 -20 3q-37 8 -58 41q-15 23 -14 48q0 10 2 21zM2820 1216.5q0 38.5 26.5 65.5t65.5 27t65.5 -27t26.5 -65.5t-26.5 -65.5t-65.5 -27t-65.5 27t-26.5 65.5zM1261 25q18 96 58 233q2 10 26 94l35 127q14 49 41 168t43 180v2q-1 6 0 12q0 32 19 58q66 238 143 369 q72 121 166 168q29 14 102 39l90 30q17 7 34 7q18 0 37 -8q36 -15 49 -51q6 -17 6 -33q0 -19 -8 -39q-15 -36 -52 -48q-49 -18 -101.5 -35.5t-74.5 -27.5q-43 -23 -88 -96q-51 -86 -94 -222l86 11q6 1 11 0q32 0 58 -20q31 -24 35 -61q1 -6 1 -11q0 -31 -20 -58 q-24 -31 -61 -35l-164 -20q-8 -33 -34.5 -149.5t-43.5 -178.5l-36 -129q-25 -86 -27 -94q-37 -127 -51 -215q-8 -37 -39 -60q-23 -17 -51 -17q-9 0 -18 2q-38 7 -60 38q-18 24 -18 53q0 9 1 17zM104 25q18 96 58 233q2 10 26 94l35 127q14 49 41 168t43 180v2q-1 6 0 12 q0 32 19 58q66 238 143 369q72 121 166 168q29 14 102 39l90 30q17 7 34 7q18 0 37 -8q36 -15 49 -51q6 -17 6 -33q0 -19 -8 -39q-15 -36 -52 -48q-49 -18 -101.5 -35.5t-74.5 -27.5q-43 -23 -88 -96q-51 -86 -94 -222l86 11q6 1 11 0q32 0 58 -20q31 -24 35 -61q1 -6 1 -11 q0 -31 -20 -58q-24 -31 -61 -35l-164 -20q-8 -33 -34.5 -149.5t-43.5 -178.5l-36 -129q-25 -86 -27 -94q-37 -127 -51 -215q-8 -37 -39 -60q-23 -17 -51 -17q-9 0 -18 2q-38 7 -60 38q-18 24 -18 53q0 9 1 17z" />
<glyph unicode="&#xfb04;" horiz-adv-x="3260" d="M2486 145q27 109 63.5 237t65.5 216l80 238q51 150 74 221q8 25 16 53l18 57q10 33 15 52q31 100 59 170q14 35 50 50q19 8 37 8q17 0 34 -7q35 -14 50 -50q8 -19 8 -37q0 -17 -7 -34q-25 -61 -53 -156q-6 -16 -16 -49l-19 -61q-8 -29 -16 -54l-74 -219l-76 -231 q-29 -88 -65.5 -213t-63.5 -236q-8 -37 -41 -56q-23 -14 -48 -14q-11 0 -22 3q-38 8 -58 41q-14 23 -13 49q0 10 2 22zM1261 25q18 96 58 233q2 10 26 94l35 127q14 49 41 168t43 180v2q-1 6 0 12q0 32 19 58q66 238 143 369q72 121 166 168q29 14 102 39l90 30q17 7 34 7 q18 0 37 -8q36 -15 49 -51q6 -17 6 -33q0 -19 -8 -39q-15 -36 -52 -48q-49 -18 -101.5 -35.5t-74.5 -27.5q-43 -23 -88 -96q-51 -86 -94 -222l86 11q6 1 11 0q32 0 58 -20q31 -24 35 -61q1 -6 1 -11q0 -31 -20 -58q-24 -31 -61 -35l-164 -20q-8 -33 -34.5 -149.5 t-43.5 -178.5l-36 -129q-25 -86 -27 -94q-37 -127 -51 -215q-8 -37 -39 -60q-23 -17 -51 -17q-9 0 -18 2q-38 7 -60 38q-18 24 -18 53q0 9 1 17zM104 25q18 96 58 233q2 10 26 94l35 127q14 49 41 168t43 180v2q-1 6 0 12q0 32 19 58q66 238 143 369q72 121 166 168 q29 14 102 39l90 30q17 7 34 7q18 0 37 -8q36 -15 49 -51q6 -17 6 -33q0 -19 -8 -39q-15 -36 -52 -48q-49 -18 -101.5 -35.5t-74.5 -27.5q-43 -23 -88 -96q-51 -86 -94 -222l86 11q6 1 11 0q32 0 58 -20q31 -24 35 -61q1 -6 1 -11q0 -31 -20 -58q-24 -31 -61 -35l-164 -20 q-8 -33 -34.5 -149.5t-43.5 -178.5l-36 -129q-25 -86 -27 -94q-37 -127 -51 -215q-8 -37 -39 -60q-23 -17 -51 -17q-9 0 -18 2q-38 7 -60 38q-18 24 -18 53q0 9 1 17z" />
</font>
</defs>
</svg>
